ply
format ascii 1.0
comment VTK generated PLY File
obj_info vtkPolyData points and polygons: vtk4.0
element vertex 452
property float x
property float y
property float z
element face 900
property list uchar int vertex_indices
end_header
-3.8248393535614014 -9.191777229309082 -4.1375942230224609 
-3.7948794364929199 -9.6725168228149414 -3.8108358383178711 
-4.0675292015075684 -9.1008415222167969 -3.9261963367462158 
-3.7999429702758789 -7.8858904838562012 -4.1198716163635254 
-4.0349230766296387 -7.5829787254333496 -3.8385350704193115 
-3.4973490238189697 -9.5171480178833008 -4.0811905860900879 
-3.5031297206878662 -9.3050832748413086 -4.1743121147155762 
-3.4881534576416016 -9.687530517578125 -3.865929126739502 
-0.54272967576980591 -9.5351343154907227 -4.0990204811096191 
-0.0035486870910972357 -9.2304773330688477 -4.2210483551025391 
3.4431586265563965 -9.6915416717529297 -3.8673605918884277 
-3.4897291660308838 -9.0564966201782227 -4.2191224098205566 
-2.9277167320251465 -8.0056591033935547 -4.1913866996765137 
-2.1236672401428223 -8.5682125091552734 -4.2030491828918457 
-2.0727605819702148 -8.2913408279418945 -4.1139717102050781 
-3.544837474822998 -6.827519416809082 -4.1693487167358398 
-2.5444216728210449 -7.811070442199707 -4.107975959777832 
-1.7462047338485718 -8.1148891448974609 -3.8895213603973389 
-2.1401939392089844 -7.9001388549804688 -3.7148826122283936 
-2.335054874420166 -7.6003761291503906 -3.9157037734985352 
1.832708477973938 -8.6435146331787109 -4.2136774063110352 
1.7666245698928833 -8.3427057266235352 -4.1221013069152832 
1.7649886608123779 -8.1352291107177734 -3.866593599319458 
-3.781207799911499 -5.4838480949401855 -4.1058664321899414 
-4.0052957534790039 -4.4719405174255371 -3.8677287101745605 
-3.1483430862426758 -5.4587726593017578 -4.1923050880432129 
-2.8387775421142578 -4.6943902969360352 -4.167910099029541 
-2.6064999103546143 -5.7622528076171875 -4.1063923835754395 
-2.3502788543701172 -5.9487318992614746 -3.8777363300323486 
-3.5434911251068115 -1.5377943515777588 -4.169400691986084 
-3.1471810340881348 -2.1230416297912598 -4.1891188621520996 
-2.6088800430297852 -3.0907208919525146 -4.1046781539916992 
-2.3559587001800537 -2.2345302104949951 -3.8798959255218506 
-3.9963891506195068 -9.5259408950805664 -3.5638101100921631 
-4.0994434356689453 -9.3064470291137695 -3.5596654415130615 
-3.7770547866821289 -9.7218017578125 0.12950199842453003 
-4.0080184936523438 -9.5383539199829102 -0.69392061233520508 
-4.1139698028564453 -9.3077049255371094 -0.81728899478912354 
-4.1391377449035645 -8.9498004913330078 -3.5790209770202637 
-4.1428217887878418 -9.0236034393310547 -1.8540211915969849 
-4.1137762069702148 -8.5470304489135742 -2.6946938037872314 
-4.0759377479553223 -7.6650114059448242 -3.2505474090576172 
-4.0191812515258789 -7.7127923965454102 -2.7254693508148193 
-4.0419464111328125 -8.2865896224975586 -2.3263251781463623 
-3.8461854457855225 -7.982696533203125 -2.3212864398956299 
-3.7468254566192627 -7.6193346977233887 -2.4217753410339355 
-3.791698694229126 -8.1241865158081055 -1.759568452835083 
-4.0427350997924805 -8.3302593231201172 1.6329590082168579 
-4.1510372161865234 -9.0051870346069336 0.41646438837051392 
-3.5131740570068359 -9.7490959167480469 -3.6077907085418701 
-3.4906902313232422 -9.7476415634155273 -2.3622775077819824 
-3.528242826461792 -9.776331901550293 -0.48476594686508179 
-2.3269975185394287 -9.7917909622192383 -0.70683127641677856 
-0.32756415009498596 -9.7870416641235352 -2.6445095539093018 
1.5982081890106201 -9.7584285736083984 -3.5984382629394531 
-1.8001035451889038 -8.0398406982421875 -3.565293550491333 
-2.280325174331665 -7.4928154945373535 -3.6107673645019531 
-2.2584750652313232 -7.5829510688781738 -3.03558349609375 
-1.8403832912445068 -8.048457145690918 -2.4643888473510742 
-2.2237529754638672 -7.8964691162109375 -2.5453693866729736 
-3.4729304313659668 -7.9055066108703613 -2.2413744926452637 
-3.3634727001190186 -8.0282554626464844 -1.875995397567749 
-2.647484302520752 -7.9191417694091797 -2.2559981346130371 
-2.2050254344940186 -8.0225830078125 -2.0752589702606201 
-3.065115213394165 -7.5718684196472168 -2.3833673000335693 
-2.6185953617095947 -7.5075826644897461 -2.4478387832641602 
-2.3523681163787842 -7.5421352386474609 -2.6547667980194092 
-2.296844482421875 -8.0498313903808594 -0.75838679075241089 
0.68137329816818237 -8.0567655563354492 -3.2231647968292236 
1.8114911317825317 -8.0731382369995117 -3.5792074203491211 
-0.085357315838336945 -8.0416717529296875 -0.24122615158557892 
0.19974344968795776 -9.8219919204711914 -1.0186874866485596 
-3.4741020202636719 -8.0595436096191406 -1.3891962766647339 
-4.0586695671081543 -3.751901388168335 -3.6133639812469482 
-4.0592617988586426 -4.830927848815918 -3.2214610576629639 
-4.0243215560913086 -4.8897819519042969 -2.8814797401428223 
-3.7723665237426758 -6.6319217681884766 -2.4852681159973145 
-3.9468696117401123 -4.999335765838623 -2.6826314926147461 
-3.7891523838043213 -2.6541142463684082 -2.5190060138702393 
-2.2736849784851074 -5.6635990142822266 -3.2402329444885254 
-2.3045337200164795 -3.6720619201660156 -2.954862117767334 
-3.610926628112793 -5.1247425079345703 -2.4317748546600342 
-3.1761541366577148 -5.0277876853942871 -2.4037008285522461 
-2.3685910701751709 -5.3635997772216797 -2.6985290050506592 
-2.6499865055084229 -4.9623503684997559 -2.4550938606262207 
-2.2960150241851807 -2.6239480972290039 -3.5988543033599854 
-3.1662600040435791 -0.75791692733764648 -2.4358174800872803 
-2.3802425861358643 -0.96738916635513306 -2.709026575088501 
3.4958770275115967 -9.5192651748657227 -4.075131893157959 
3.4977686405181885 -9.3068828582763672 -4.1718597412109375 
3.8276181221008301 -9.1651058197021484 -4.1348261833190918 
3.7968754768371582 -9.6694793701171875 -3.8190279006958008 
3.4717504978179932 -9.0208616256713867 -4.2178030014038086 
2.4133195877075195 -8.1825227737426758 -4.1333293914794922 
2.9365103244781494 -8.1425504684448242 -4.2032012939453125 
3.5536737442016602 -6.7697877883911133 -4.1882843971252441 
2.1655094623565674 -7.9936733245849609 -3.8937788009643555 
2.3027248382568359 -7.8028769493103027 -3.9032957553863525 
2.5987935066223145 -7.2619285583496094 -4.1150727272033691 
4.0518245697021484 -9.1643638610839844 -3.9049394130706787 
4.016298770904541 -5.1027317047119141 -3.8661448955535889 
2.3539748191833496 -7.0238070487976074 -3.8573298454284668 
2.972210168838501 -5.530785083770752 -4.1888480186462402 
3.7864031791687012 -5.139735221862793 -4.1146259307861328 
2.3730320930480957 -2.2201340198516846 -3.8637456893920898 
2.6101174354553223 -1.3244256973266602 -4.0962991714477539 
3.5391299724578857 -3.5012345314025879 -4.1710882186889648 
3.1170763969421387 -2.5948143005371094 -4.186823844909668 
2.831355094909668 -1.1923971176147461 -4.1566634178161621 
3.7924602031707764 -2.672062873840332 -4.1106095314025879 
3.491318941116333 -9.7475366592407227 -3.6145734786987305 
3.7805311679840088 -9.7191591262817383 -0.43568059802055359 
1.8614183664321899 -8.0344028472900391 -2.6024651527404785 
3.0572004318237305 -8.0490655899047852 -1.5630025863647461 
2.1578655242919922 -7.9197216033935547 -2.7391321659088135 
2.2965495586395264 -7.5213232040405273 -3.057720422744751 
2.4783995151519775 -7.8874502182006836 -2.3434062004089355 
2.3793404102325439 -7.5179448127746582 -2.6970715522766113 
2.6117372512817383 -7.5736966133117676 -2.462212085723877 
2.3952898979187012 -8.0138998031616211 -2.1212902069091797 
3.3434092998504639 -7.9066033363342285 -2.2572858333587646 
2.9429967403411865 -7.568422794342041 -2.3910398483276367 
3.7520709037780762 -7.5960369110107422 -2.4462881088256836 
3.5085406303405762 -8.0589513778686523 -1.8958479166030884 
3.8451006412506104 -7.9945721626281738 -2.3355998992919922 
3.7911274433135986 -8.1221113204956055 -1.8885039091110229 
3.4987971782684326 -9.7777309417724609 -0.74064236879348755 
1.7690234184265137 -9.8009624481201172 1.1325372457504272 
3.4843583106994629 -9.7801170349121094 0.97958439588546753 
3.9891593456268311 -9.5265588760375977 -3.5888979434967041 
4.1223897933959961 -9.1797523498535156 -3.5837318897247314 
4.1035070419311523 -9.3105621337890625 0.025947226211428642 
4.0056309700012207 -9.5402212142944336 -0.13465692102909088 
4.0823149681091309 -6.862267017364502 -3.6181585788726807 
4.0977325439453125 -7.8473210334777832 -2.9895420074462891 
4.1134109497070312 -8.6218185424804688 -2.4872283935546875 
4.0370593070983887 -8.3335380554199219 -2.0450260639190674 
4.0232992172241211 -7.912266731262207 -2.6821444034576416 
4.1413388252258301 -8.9871654510498047 -0.19351086020469666 
4.0391435623168945 -8.3328943252563477 1.6701232194900513 
4.1025443077087402 -8.529994010925293 2.2305762767791748 
2.30387282371521 -2.6303465366363525 -3.2481467723846436 
2.3140063285827637 -3.7660453319549561 -3.613675594329834 
2.3481540679931641 -4.0582337379455566 -2.8570353984832764 
2.5965940952301025 -5.29730224609375 -2.5267479419708252 
2.8158574104309082 -5.1264786720275879 -2.4486808776855469 
3.1302947998046875 -5.0708165168762207 -2.4217581748962402 
3.5785343647003174 -4.9872312545776367 -2.4483547210693359 
2.4241538047790527 -4.223322868347168 -2.6836564540863037 
3.782935619354248 -4.345329761505127 -2.5063579082489014 
2.5967667102813721 -1.0464982986450195 -2.5469326972961426 
4.0916523933410645 -4.265561580657959 -3.2104284763336182 
4.0611815452575684 -4.9255399703979492 -2.9253807067871094 
3.9862375259399414 -3.1892685890197754 -2.7079644203186035 
4.0863370895385742 -0.74984806776046753 -3.604212760925293 
-3.7916593551635742 -0.385943204164505 -4.1081113815307617 
-4.011162281036377 -0.31931689381599426 -3.860875129699707 
-2.945178747177124 0.33656275272369385 -4.2014608383178711 
-2.6081411838531494 -0.19842229783535004 -4.1122193336486816 
-3.5421669483184814 1.7760279178619385 -4.2082204818725586 
-2.3406264781951904 -0.12504918873310089 -3.8386249542236328 
-3.7974703311920166 1.9749096632003784 -4.1433858871459961 
-4.0067439079284668 1.9691979885101318 -3.8601126670837402 
-3.7452096939086914 2.3051512241363525 -3.8363051414489746 
-2.9715924263000488 1.7567318677902222 -4.228752613067627 
-2.5884759426116943 1.9662612676620483 -4.1367168426513672 
-2.320601224899292 1.9698019027709961 -3.9016311168670654 
-3.1723048686981201 2.1635165214538574 -4.1426944732666016 
-3.0026545524597168 2.4026839733123779 -3.7730927467346191 
-2.6656553745269775 2.2990999221801758 -3.8945832252502441 
-4.0616521835327148 -0.69973075389862061 -3.5997259616851807 
-4.0547513961791992 -1.0489828586578369 -2.9212512969970703 
-3.9618058204650879 -1.3923394680023193 -2.6899182796478271 
-3.7864668369293213 1.7371762990951538 -2.5083787441253662 
-2.2780275344848633 -0.13232482969760895 -3.055534839630127 
-3.5397028923034668 -1.5422273874282837 -2.4529488086700439 
-2.8572287559509277 -0.054291866719722748 -2.4589576721191406 
-2.5955214500427246 -0.41344860196113586 -2.5306403636932373 
-4.0702195167541504 1.7793940305709839 -3.5896599292755127 
-4.0690131187438965 1.9840410947799683 -3.0206851959228516 
-3.9886043071746826 1.7818703651428223 -2.7026522159576416 
-3.8403913974761963 2.0895512104034424 -2.6239731311798096 
-3.7900176048278809 2.3438796997070312 -3.0596678256988525 
-2.2572524547576904 1.7617741823196411 -3.6138455867767334 
-2.2706763744354248 1.981997013092041 -2.9560203552246094 
-3.5692880153656006 1.9489331245422363 -2.431102991104126 
-3.0302691459655762 1.9733953475952148 -2.4114241600036621 
-2.3770489692687988 1.9632542133331299 -2.667896032333374 
-2.641594409942627 1.741290807723999 -2.4568607807159424 
-3.0217897891998291 2.4171164035797119 -3.0219306945800781 
-2.6992368698120117 2.3840055465698242 -3.2470400333404541 
-2.4434266090393066 2.2836489677429199 -3.4933071136474609 
-2.6276111602783203 2.2632856369018555 -2.7447350025177002 
-3.3667352199554443 2.2949533462524414 -2.6635100841522217 
3.1333696842193604 -0.56896913051605225 -4.1808066368103027 
3.8015899658203125 0.27100288867950439 -4.1128478050231934 
3.5310478210449219 0.17785663902759552 -4.1726260185241699 
4.0223426818847656 -0.43160796165466309 -3.8703024387359619 
4.0458235740661621 0.82546842098236084 -3.9113099575042725 
2.5851316452026367 1.7794486284255981 -4.1111559867858887 
2.3586907386779785 1.7257969379425049 -3.8859264850616455 
2.9448668956756592 1.8131213188171387 -4.2041897773742676 
2.9520578384399414 2.1069669723510742 -4.1475048065185547 
2.3798675537109375 2.0524780750274658 -3.8437600135803223 
3.7336990833282471 1.9466022253036499 -4.1355628967285156 
2.5935842990875244 2.2724668979644775 -3.8200206756591797 
2.9475002288818359 2.3639583587646484 -3.8770303726196289 
3.7549209594726562 2.3003528118133545 -3.8279826641082764 
4.0258517265319824 1.9315855503082275 -3.8758127689361572 
2.3434932231903076 -0.2971767783164978 -2.8640940189361572 
2.8462111949920654 -2.4571740627288818 -2.4540822505950928 
3.6000425815582275 -0.79361903667449951 -2.4452621936798096 
2.4286625385284424 -0.20279237627983093 -2.6892092227935791 
2.9377503395080566 0.44809669256210327 -2.4371976852416992 
2.2972657680511475 1.7624367475509644 -3.5806918144226074 
2.2924120426177979 1.760845422744751 -3.0666077136993408 
3.7862217426300049 -0.25450149178504944 -2.5088708400726318 
4.0822453498840332 -1.8419852256774902 -3.192716121673584 
4.0453958511352539 -2.0701181888580322 -2.8865611553192139 
4.0143990516662598 1.9161921739578247 -2.69586181640625 
2.3457517623901367 2.0641951560974121 -3.0045757293701172 
2.6499679088592529 1.7446637153625488 -2.4573864936828613 
3.7367780208587646 1.9474930763244629 -2.4451954364776611 
3.0591330528259277 1.9907214641571045 -2.403702974319458 
2.4219145774841309 2.0050678253173828 -2.6564850807189941 
2.5492920875549316 2.3110930919647217 -3.0543878078460693 
2.9553108215332031 2.4215800762176514 -3.0519464015960693 
3.7753341197967529 2.3650472164154053 -3.0755250453948975 
3.7628610134124756 2.2727839946746826 -2.725977897644043 
3.013272762298584 2.3022806644439697 -2.6467921733856201 
4.0822105407714844 1.9898132085800171 -3.6348316669464111 
4.0934686660766602 1.95867919921875 -2.9878172874450684 
-3.9918653964996338 -9.5222244262695312 3.3954422473907471 
-4.1080503463745117 -9.2171716690063477 3.4866416454315186 
-4.1151585578918457 -8.5800161361694336 2.8170907497406006 
-3.7933254241943359 -8.1244792938232422 1.6599111557006836 
-3.7972877025604248 -9.6755867004394531 3.648808479309082 
-4.0510363578796387 -9.145024299621582 3.7353649139404297 
-4.0489921569824219 -8.1720342636108398 2.4021620750427246 
-4.0672783851623535 -7.7238078117370605 2.890841007232666 
-3.8417742252349854 -7.9823203086853027 2.1603279113769531 
-3.7710409164428711 -7.5229902267456055 2.2858717441558838 
-4.0004358291625977 -7.6365447044372559 2.5222456455230713 
-4.0617027282714844 -7.3906488418579102 3.4009814262390137 
-4.0060157775878906 -7.7822380065917969 3.683539867401123 
-2.8670680522918701 -9.7890634536743164 1.1258668899536133 
-3.5429425239562988 -9.7479686737060547 2.3705272674560547 
-0.59694004058837891 -9.8150873184204102 1.6018054485321045 
-3.4927539825439453 -8.062342643737793 1.6984682083129883 
-2.0876343250274658 -8.0527858734130859 1.5127179622650146 
-2.3338394165039062 -8.0088024139404297 1.9794187545776367 
1.782451868057251 -8.0566740036010742 2.734760046005249 
-3.5222742557525635 -9.7556953430175781 3.431053638458252 
-0.96803748607635498 -9.7791166305541992 2.9776139259338379 
-3.50111985206604 -9.700164794921875 3.6945703029632568 
-0.48345822095870972 -9.7102890014648438 3.6924209594726562 
0.50963824987411499 -9.7747936248779297 3.3738019466400146 
-3.4509389400482178 -7.9179606437683105 2.076380729675293 
-2.468156099319458 -7.8846597671508789 2.1684975624084473 
-3.5509674549102783 -7.5408258438110352 2.2333943843841553 
-3.1288018226623535 -7.549232006072998 2.2127718925476074 
-2.8978266716003418 -7.1358017921447754 2.2301657199859619 
-2.1617610454559326 -7.9504852294921875 2.482149600982666 
-2.5988109111785889 -7.515284538269043 2.2883448600769043 
-2.3603246212005615 -7.5446653366088867 2.4936285018920898 
-2.273505687713623 -7.5724921226501465 2.8208534717559814 
-2.1318321228027344 -7.8958683013916016 3.3680124282836914 
-1.7938151359558105 -8.0563879013061523 3.4031784534454346 
-2.2608435153961182 -7.5128026008605957 3.3458497524261475 
-2.235506534576416 -7.9627804756164551 3.7800016403198242 
-1.7696503400802612 -8.1236667633056641 3.7100632190704346 
-2.3492860794067383 -7.5390200614929199 3.7291052341461182 
-1.5430722236633301 -8.0469474792480469 2.9877216815948486 
1.8397003412246704 -8.1253738403320312 3.7012193202972412 
-3.9641263484954834 -1.5215048789978027 2.5067403316497803 
-4.037726879119873 -3.7036032676696777 2.6890733242034912 
-4.000391960144043 -3.753922700881958 3.6741795539855957 
-4.0452547073364258 -2.8154292106628418 3.4633176326751709 
-3.1846554279327393 -2.5344879627227783 2.2188172340393066 
-2.3686079978942871 -5.0655035972595215 2.5173764228820801 
-2.3004145622253418 -4.8789916038513184 2.7496342658996582 
-2.6076312065124512 -3.57179856300354 2.2859013080596924 
-2.2824306488037109 -4.1842598915100098 3.0396785736083984 
-2.3544023036956787 -5.5701451301574707 3.7038393020629883 
-2.3024635314941406 -4.0748991966247559 3.4603557586669922 
-3.7648332118988037 -0.92823368310928345 2.2891542911529541 
-2.8231213092803955 -2.2189021110534668 2.2463054656982422 
-3.5366339683532715 0.033396430313587189 2.2337863445281982 
-2.3703832626342773 -2.1294088363647461 2.5251028537750244 
-2.369884729385376 -2.359276294708252 3.6940691471099854 
-3.8229870796203613 -9.1788473129272461 3.959230899810791 
-3.7803034782409668 -7.9329395294189453 3.9263491630554199 
-3.4658424854278564 -9.5328569412231445 3.9016351699829102 
-3.4972405433654785 -9.2107067108154297 4.0343666076660156 
-1.5626606941223145 -9.3161821365356445 4.0094246864318848 
0.98637932538986206 -9.531926155090332 3.9177155494689941 
-2.3291385173797607 -9.0004491806030273 4.033684253692627 
-3.5453801155090332 -7.3929905891418457 3.9767756462097168 
-2.2921009063720703 -8.5417928695678711 4.014249324798584 
-2.0577254295349121 -8.3059062957763672 3.9327349662780762 
-3.0062739849090576 -7.8297858238220215 4.0006651878356934 
-2.6016192436218262 -7.7294597625732422 3.9271438121795654 
-0.46119523048400879 -9.0135068893432617 4.0679101943969727 
2.0056402683258057 -8.3204841613769531 3.9502551555633545 
-3.7758517265319824 -4.1972908973693848 3.9085774421691895 
-2.8389487266540527 -5.5970363616943359 3.9625766277313232 
-3.1493113040924072 -3.6154146194458008 3.992722749710083 
-2.606278657913208 -5.3817529678344727 3.9073774814605713 
3.7844541072845459 -9.6854047775268555 3.418403148651123 
2.1767909526824951 -8.0437297821044922 1.9010065793991089 
3.4644486904144287 -8.0551729202270508 1.6991125345230103 
3.78997802734375 -8.1264181137084961 1.6599353551864624 
2.3297040462493896 -9.7415590286254883 3.4063465595245361 
3.7438061237335205 -9.6642589569091797 3.7048830986022949 
3.5134444236755371 -9.7463893890380859 3.414015531539917 
1.7506543397903442 -8.062896728515625 3.3566963672637939 
2.5592939853668213 -7.9347729682922363 2.0945825576782227 
2.3299212455749512 -7.8403725624084473 2.3519611358642578 
2.6045081615447998 -7.4068779945373535 2.2767505645751953 
3.0609018802642822 -7.5699348449707031 2.1719815731048584 
2.9682466983795166 -6.9027161598205566 2.2001340389251709 
2.1643047332763672 -7.9225282669067383 2.6105201244354248 
2.3731153011322021 -7.1249923706054688 2.5256195068359375 
2.2556838989257812 -7.6406726837158203 2.9140455722808838 
2.298914909362793 -7.1656088829040527 2.8976898193359375 
3.4294219017028809 -7.8973069190979004 2.0459449291229248 
3.9241833686828613 -8.0058097839355469 2.1550192832946777 
3.7936794757843018 -7.5939855575561523 2.223762035369873 
2.1627657413482666 -7.9251174926757812 3.4088141918182373 
2.2295660972595215 -8.0113248825073242 3.7683975696563721 
2.3023297786712646 -7.5219197273254395 3.4517672061920166 
2.3665058612823486 -7.4800162315368652 3.6912741661071777 
3.9926648139953613 -9.5206193923950195 3.4267354011535645 
4.0913205146789551 -9.3052835464477539 3.4298362731933594 
4.1308021545410156 -8.9942083358764648 3.4254393577575684 
4.0563406944274902 -9.1647863388061523 3.7457222938537598 
4.0874104499816895 -7.7725577354431152 2.8182260990142822 
4.0141291618347168 -7.6729893684387207 2.4962079524993896 
4.0946245193481445 -7.7409548759460449 3.4270429611206055 
4.0243144035339355 -7.5825037956237793 3.698540210723877 
3.7803246974945068 -5.1596994400024414 2.2788863182067871 
2.2894179821014404 -5.200777530670166 2.9037027359008789 
3.4980759620666504 -4.9160761833190918 2.2102022171020508 
2.610706090927124 -2.7368772029876709 2.2897944450378418 
2.8687670230865479 -2.5051755905151367 2.2194113731384277 
2.3821942806243896 -2.1309666633605957 2.5182600021362305 
3.5316989421844482 -1.734100341796875 2.2201480865478516 
2.3099229335784912 -1.8842540979385376 3.0864782333374023 
2.3678619861602783 -3.1073884963989258 3.6492114067077637 
4.0898709297180176 -2.7522778511047363 2.8077774047851562 
4.0126481056213379 -3.6273174285888672 2.5117673873901367 
4.0953965187072754 -4.016669750213623 3.0710568428039551 
4.076256275177002 -4.1954259872436523 3.4492318630218506 
4.0114536285400391 -2.428368091583252 3.6861333847045898 
1.3838911056518555 -9.3142433166503906 4.0142703056335449 
3.4995574951171875 -9.5231266021728516 3.9016003608703613 
3.481346607208252 -9.180842399597168 4.0454244613647461 
3.8254079818725586 -9.1473445892333984 3.966961145401001 
1.9861667156219482 -8.5945329666137695 4.0241198539733887 
2.1459639072418213 -8.9917430877685547 4.0400257110595703 
2.5965604782104492 -7.9116706848144531 3.9345505237579346 
2.9720895290374756 -7.8252739906311035 3.9963004589080811 
3.7756986618041992 -7.5497941970825195 3.9201598167419434 
3.5078718662261963 -7.4102697372436523 3.9744551181793213 
2.5943522453308105 -5.0814743041992188 3.8828153610229492 
3.0898730754852295 -4.728790283203125 3.9688766002655029 
2.7911605834960938 -4.6878933906555176 3.943366527557373 
3.5113635063171387 -3.472689151763916 3.966876745223999 
3.7714753150939941 -3.2259652614593506 3.9130897521972656 
-4.057070255279541 -0.74686640501022339 2.8736732006072998 
-4.0149292945861816 0.06791599839925766 3.6490843296051025 
-4.0731544494628906 1.8020385503768921 2.7915079593658447 
-2.3092889785766602 -0.9755253791809082 2.7534067630767822 
-2.6152770519256592 -1.7364194393157959 2.2998645305633545 
-2.2846395969390869 -0.12948852777481079 3.0710327625274658 
-2.3041532039642334 -1.3187379837036133 3.4585669040679932 
-2.9437716007232666 0.48511204123497009 2.2216737270355225 
-2.3721363544464111 0.38809528946876526 2.5259451866149902 
-2.5988564491271973 1.9506533145904541 2.2700133323669434 
-3.9803445339202881 1.9467241764068604 2.5086264610290527 
-3.7358090877532959 1.9420057535171509 2.2561013698577881 
-4.078155517578125 1.7241802215576172 3.4301290512084961 
-4.0157780647277832 1.9448947906494141 3.6801326274871826 
-4.0270071029663086 2.057974100112915 3.0497257709503174 
-3.7179014682769775 2.2909393310546875 2.5255753993988037 
-3.8307657241821289 2.3144493103027344 3.2727274894714355 
-3.6834542751312256 2.2948722839355469 3.6710457801818848 
-2.9438610076904297 1.7703055143356323 2.1886594295501709 
-2.324169397354126 1.7985982894897461 2.5397491455078125 
-3.183866024017334 2.0999557971954346 2.2481780052185059 
-2.5574688911437988 2.2338502407073975 2.5373284816741943 
-2.3226675987243652 2.1057229042053223 2.8485860824584961 
-2.2604458332061768 1.7909713983535767 3.3680624961853027 
-2.3463387489318848 1.7376397848129272 3.7250030040740967 
-2.35833740234375 2.050523042678833 3.6293630599975586 
-3.533132791519165 2.405482292175293 2.8851556777954102 
-2.9721753597259521 2.4259676933288574 2.883232593536377 
-2.9137322902679443 2.3017411231994629 2.4634683132171631 
-3.0044147968292236 2.3549985885620117 3.6844379901885986 
-2.6589710712432861 2.2671170234680176 3.6947052478790283 
-2.5374903678894043 2.3176310062408447 3.2239749431610107 
-3.7748827934265137 -0.36172974109649658 3.92214035987854 
-3.5478801727294922 -1.6112977266311646 3.9854159355163574 
-2.8374407291412354 -1.5176436901092529 3.9801709651947021 
-2.6103746891021729 0.0095615340396761894 3.9202182292938232 
-3.1386005878448486 -0.60722750425338745 4.0013933181762695 
-3.5428874492645264 1.9897400140762329 3.9773185253143311 
-3.7735164165496826 1.9248533248901367 3.9241225719451904 
-2.9707303047180176 1.7815999984741211 4.0053939819335938 
-2.6449294090270996 1.982419490814209 3.9368715286254883 
2.3331968784332275 -0.97326326370239258 2.7229952812194824 
3.1769726276397705 0.43087592720985413 2.2012012004852295 
3.7727119922637939 0.69277584552764893 2.2754368782043457 
2.3820159435272217 -0.90844589471817017 3.6835668087005615 
2.3229329586029053 -0.74637609720230103 3.4572386741638184 
2.644784688949585 0.0013960647629573941 2.2769613265991211 
2.3724415302276611 1.743361234664917 2.5309467315673828 
2.2817473411560059 1.7620347738265991 2.9059746265411377 
4.0832037925720215 -1.4894430637359619 3.42864990234375 
4.021965503692627 -0.27135342359542847 2.5561530590057373 
4.0833597183227539 -0.21870474517345428 3.0715706348419189 
4.0585184097290039 0.3336884081363678 3.4508867263793945 
4.0235261917114258 1.9843922853469849 3.6898996829986572 
2.9645330905914307 1.7687356472015381 2.1866803169250488 
2.60213303565979 1.7508972883224487 2.2822349071502686 
3.7672781944274902 1.7566957473754883 2.2330317497253418 
2.8993024826049805 2.0626165866851807 2.2564663887023926 
2.344571590423584 2.0672235488891602 2.9003424644470215 
2.5283422470092773 2.0873782634735107 2.4478652477264404 
3.6413671970367432 2.0514311790466309 2.2567338943481445 
2.3539073467254639 1.921438455581665 3.6647040843963623 
2.5436859130859375 2.014467716217041 3.8518297672271729 
2.9140520095825195 2.2999780178070068 2.4744770526885986 
2.5721650123596191 2.2956538200378418 2.8198013305664062 
2.9525852203369141 2.4286859035491943 2.8838224411010742 
3.730224609375 2.2965700626373291 2.5322463512420654 
3.6850101947784424 2.3950600624084473 2.9212820529937744 
2.5681822299957275 2.2999486923217773 3.3871495723724365 
2.9508910179138184 2.4182052612304688 3.4407081604003906 
2.9578521251678467 2.327711820602417 3.7514462471008301 
3.749586820602417 2.3248872756958008 3.6706454753875732 
4.0251989364624023 1.9564634561538696 2.5113646984100342 
4.1094293594360352 1.7754307985305786 2.8284897804260254 
4.1071105003356934 1.7910748720169067 3.4058823585510254 
4.0431098937988281 2.1598527431488037 3.071782112121582 
2.596034049987793 -0.24732145667076111 3.8782720565795898 
2.7867639064788818 0.48859620094299316 3.9404275417327881 
3.1353387832641602 0.20606745779514313 3.9697551727294922 
3.7648425102233887 0.32747429609298706 3.9049801826477051 
3.5119471549987793 0.17871621251106262 3.9598233699798584 
3.7428867816925049 1.9663636684417725 3.9512722492218018 
2.9566740989685059 1.9718186855316162 3.9947834014892578 
3 1 2 0 
3 3 0 2 
3 2 4 3 
3 0 6 5 
3 1 5 7 
3 5 1 0 
3 5 6 8 
3 5 8 7 
3 8 6 9 
3 10 7 8 
3 0 11 6 
3 11 0 3 
3 11 9 6 
3 13 9 11 
3 13 11 12 
3 15 11 3 
3 12 11 15 
3 12 14 13 
3 16 14 12 
3 16 18 14 
3 17 14 18 
3 18 16 19 
3 14 20 13 
3 20 9 13 
3 21 14 17 
3 17 22 21 
3 23 3 4 
3 4 24 23 
3 15 3 23 
3 25 12 15 
3 25 26 12 
3 12 27 16 
3 27 19 16 
3 12 26 27 
3 27 28 19 
3 23 29 15 
3 25 15 29 
3 30 25 29 
3 26 25 30 
3 26 31 27 
3 27 31 32 
3 32 28 27 
3 34 2 33 
3 33 2 1 
3 33 1 35 
3 35 36 33 
3 37 34 33 
3 34 38 2 
3 39 38 34 
3 39 40 38 
3 40 41 38 
3 4 2 38 
3 41 4 38 
3 40 42 41 
3 39 34 37 
3 40 43 42 
3 44 42 43 
3 44 45 42 
3 43 46 44 
3 37 33 36 
3 46 43 47 
3 40 47 43 
3 40 39 48 
3 1 7 49 
3 1 49 50 
3 35 1 50 
3 51 50 49 
3 51 49 52 
3 49 7 10 
3 49 10 54 
3 49 54 53 
3 52 49 53 
3 55 17 18 
3 18 19 56 
3 18 56 57 
3 18 58 55 
3 58 18 59 
3 59 18 57 
3 61 60 44 
3 61 44 46 
3 61 63 62 
3 62 60 61 
3 44 60 45 
3 64 45 60 
3 64 60 62 
3 58 59 63 
3 59 66 65 
3 59 57 66 
3 63 59 62 
3 63 67 58 
3 64 62 65 
3 59 65 62 
3 69 17 55 
3 69 22 17 
3 68 69 55 
3 55 58 68 
3 70 68 58 
3 35 50 51 
3 52 53 71 
3 72 61 46 
3 67 61 72 
3 61 67 63 
3 67 70 58 
3 4 73 24 
3 41 73 4 
3 42 75 41 
3 74 41 75 
3 74 73 41 
3 42 45 76 
3 77 75 42 
3 42 76 77 
3 76 78 77 
3 19 28 56 
3 79 57 56 
3 57 79 80 
3 45 81 76 
3 64 81 45 
3 82 64 65 
3 66 83 65 
3 83 84 65 
3 57 80 83 
3 83 66 57 
3 81 64 82 
3 85 56 28 
3 28 32 85 
3 56 85 79 
3 80 79 85 
3 82 65 84 
3 78 76 81 
3 81 82 86 
3 87 84 83 
3 88 8 9 
3 9 89 88 
3 10 8 88 
3 88 89 90 
3 10 88 91 
3 91 88 90 
3 21 20 14 
3 92 9 20 
3 92 89 9 
3 93 20 21 
3 94 92 20 
3 94 20 93 
3 89 92 90 
3 90 92 95 
3 21 22 96 
3 21 96 93 
3 96 97 93 
3 94 93 98 
3 98 93 97 
3 95 92 94 
3 91 90 99 
3 90 100 99 
3 102 94 98 
3 97 101 98 
3 103 90 95 
3 95 94 102 
3 104 98 101 
3 98 105 102 
3 102 106 95 
3 103 95 106 
3 108 102 105 
3 104 105 98 
3 107 102 108 
3 106 102 107 
3 109 103 106 
3 103 100 90 
3 103 109 100 
3 54 71 53 
3 54 10 110 
3 91 110 10 
3 110 91 111 
3 112 69 68 
3 96 22 69 
3 69 114 96 
3 115 97 96 
3 115 96 114 
3 115 101 97 
3 114 69 112 
3 114 117 115 
3 114 116 117 
3 118 117 116 
3 119 114 112 
3 119 116 114 
3 113 119 112 
3 119 120 116 
3 121 118 116 
3 123 120 119 
3 123 125 124 
3 124 120 123 
3 116 120 121 
3 121 120 122 
3 122 120 124 
3 126 71 54 
3 127 71 126 
3 54 110 126 
3 111 126 110 
3 111 128 126 
3 113 112 68 
3 70 113 68 
3 123 119 113 
3 91 99 129 
3 129 99 130 
3 129 130 131 
3 132 111 91 
3 91 129 132 
3 131 132 129 
3 133 130 99 
3 130 133 134 
3 99 100 133 
3 130 134 135 
3 135 134 137 
3 137 136 135 
3 124 137 122 
3 124 136 137 
3 136 124 125 
3 131 130 138 
3 138 130 135 
3 135 136 139 
3 125 139 136 
3 138 135 140 
3 139 140 135 
3 142 101 115 
3 141 142 115 
3 115 143 141 
3 118 144 117 
3 121 145 144 
3 144 118 121 
3 146 145 121 
3 146 121 122 
3 146 122 147 
3 115 117 143 
3 117 148 143 
3 117 144 148 
3 147 122 149 
3 104 101 142 
3 148 144 150 
3 150 144 145 
3 134 133 151 
3 134 151 152 
3 134 152 137 
3 153 137 152 
3 153 149 122 
3 153 122 137 
3 133 100 154 
3 133 154 151 
3 24 155 23 
3 156 155 24 
3 155 29 23 
3 157 26 30 
3 31 26 157 
3 158 31 157 
3 158 32 31 
3 29 157 30 
3 159 29 155 
3 157 29 159 
3 158 160 32 
3 161 155 156 
3 156 162 161 
3 163 161 162 
3 165 158 157 
3 165 157 164 
3 166 160 158 
3 159 155 161 
3 164 157 159 
3 167 164 159 
3 167 159 161 
3 167 165 164 
3 158 165 166 
3 161 163 167 
3 168 167 163 
3 167 169 165 
3 169 167 168 
3 166 165 169 
3 73 170 156 
3 156 24 73 
3 171 73 74 
3 171 74 75 
3 171 170 73 
3 77 172 75 
3 77 78 172 
3 171 75 172 
3 78 173 172 
3 174 80 85 
3 81 175 78 
3 86 175 81 
3 86 82 84 
3 86 84 176 
3 176 84 177 
3 177 84 87 
3 80 87 83 
3 160 85 32 
3 85 160 174 
3 173 78 175 
3 174 87 80 
3 170 178 156 
3 171 179 170 
3 178 162 156 
3 178 179 162 
3 178 170 179 
3 180 171 172 
3 180 172 173 
3 171 180 179 
3 181 179 180 
3 180 173 181 
3 162 182 163 
3 182 162 179 
3 182 179 181 
3 160 166 183 
3 174 160 183 
3 174 183 184 
3 183 166 184 
3 185 173 175 
3 185 175 86 
3 185 86 186 
3 176 186 86 
3 187 177 87 
3 177 188 176 
3 188 177 187 
3 184 187 87 
3 184 87 174 
3 181 173 185 
3 186 176 188 
3 188 187 186 
3 182 189 168 
3 168 163 182 
3 190 168 189 
3 166 169 191 
3 191 169 168 
3 190 191 168 
3 184 166 191 
3 184 191 192 
3 189 192 190 
3 192 191 190 
3 193 182 181 
3 193 189 182 
3 181 185 193 
3 185 186 193 
3 193 192 189 
3 186 192 193 
3 192 187 184 
3 186 187 192 
3 194 107 108 
3 106 107 194 
3 195 109 106 
3 194 196 106 
3 195 106 196 
3 197 100 109 
3 197 109 195 
3 105 199 108 
3 200 199 105 
3 200 105 104 
3 201 108 199 
3 194 108 201 
3 199 202 201 
3 200 203 199 
3 199 203 202 
3 201 204 196 
3 196 194 201 
3 195 196 204 
3 204 201 202 
3 202 205 206 
3 205 202 203 
3 202 206 207 
3 202 207 204 
3 195 198 197 
3 195 208 198 
3 204 208 195 
3 208 204 207 
3 143 209 141 
3 145 210 150 
3 211 147 149 
3 146 210 145 
3 146 147 211 
3 148 212 143 
3 148 150 212 
3 212 209 143 
3 211 213 146 
3 210 146 213 
3 142 214 104 
3 214 142 141 
3 200 104 214 
3 215 214 141 
3 209 215 141 
3 150 210 213 
3 211 149 216 
3 154 100 197 
3 217 151 154 
3 152 151 218 
3 218 151 217 
3 152 218 153 
3 154 197 198 
3 216 149 153 
3 153 218 219 
3 203 200 214 
3 220 203 214 
3 220 214 215 
3 150 221 212 
3 213 221 150 
3 222 211 216 
3 223 213 211 
3 223 211 222 
3 209 224 215 
3 224 209 212 
3 224 212 221 
3 215 224 220 
3 221 223 224 
3 221 213 223 
3 203 225 205 
3 225 226 206 
3 206 205 225 
3 225 203 220 
3 227 207 206 
3 227 206 226 
3 225 220 224 
3 229 225 224 
3 226 225 229 
3 229 224 223 
3 229 228 227 
3 227 226 229 
3 222 228 229 
3 222 229 223 
3 230 154 198 
3 231 217 154 
3 217 231 218 
3 198 208 230 
3 231 154 230 
3 153 222 216 
3 153 219 222 
3 231 219 218 
3 207 230 208 
3 230 207 227 
3 227 231 230 
3 231 227 228 
3 228 219 231 
3 228 222 219 
3 232 36 35 
3 37 36 232 
3 232 233 37 
3 37 48 39 
3 48 37 233 
3 48 234 40 
3 47 40 234 
3 47 235 46 
3 232 35 236 
3 232 237 233 
3 232 236 237 
3 234 48 233 
3 238 47 234 
3 239 238 234 
3 240 235 47 
3 240 47 238 
3 242 241 240 
3 242 240 238 
3 242 238 239 
3 243 239 234 
3 233 243 234 
3 237 244 243 
3 243 233 237 
3 245 51 52 
3 35 51 246 
3 245 246 51 
3 245 52 71 
3 245 71 247 
3 46 248 72 
3 248 46 235 
3 249 72 248 
3 249 67 72 
3 70 67 249 
3 250 249 248 
3 251 70 249 
3 246 236 35 
3 253 246 245 
3 246 253 252 
3 236 246 252 
3 236 252 254 
3 255 254 252 
3 245 247 253 
3 256 252 253 
3 252 256 255 
3 240 257 248 
3 248 235 240 
3 250 248 257 
3 257 258 250 
3 259 257 240 
3 259 240 241 
3 260 257 259 
3 258 257 260 
3 258 262 250 
3 260 263 258 
3 263 260 261 
3 263 264 258 
3 262 258 264 
3 262 264 265 
3 267 262 266 
3 265 266 262 
3 269 270 267 
3 267 266 269 
3 266 265 268 
3 269 266 268 
3 269 268 271 
3 272 249 250 
3 272 251 249 
3 272 250 262 
3 272 262 267 
3 267 270 273 
3 274 241 242 
3 275 242 239 
3 242 275 274 
3 243 244 276 
3 243 277 239 
3 243 276 277 
3 259 278 260 
3 279 264 263 
3 265 264 279 
3 265 279 280 
3 263 281 279 
3 282 268 265 
3 271 268 283 
3 265 280 282 
3 268 282 284 
3 283 268 284 
3 261 260 278 
3 241 285 259 
3 286 261 278 
3 281 263 261 
3 281 261 286 
3 287 259 285 
3 278 259 287 
3 288 279 281 
3 279 288 280 
3 283 284 289 
3 290 237 236 
3 291 244 237 
3 291 237 290 
3 254 292 236 
3 292 290 236 
3 290 292 293 
3 292 294 293 
3 254 255 292 
3 295 292 255 
3 295 294 292 
3 297 291 290 
3 290 293 297 
3 293 294 296 
3 297 293 300 
3 293 296 300 
3 300 296 298 
3 299 269 301 
3 299 300 298 
3 301 300 299 
3 269 299 270 
3 301 269 271 
3 302 296 294 
3 298 296 302 
3 303 299 298 
3 273 270 299 
3 299 303 273 
3 244 291 304 
3 276 244 304 
3 306 300 305 
3 301 305 300 
3 301 271 283 
3 307 301 283 
3 297 300 306 
3 291 297 304 
3 307 305 301 
3 307 283 289 
3 247 71 127 
3 253 247 127 
3 127 126 128 
3 128 111 308 
3 309 70 251 
3 310 113 70 
3 310 70 309 
3 113 310 123 
3 125 123 310 
3 310 311 125 
3 253 312 256 
3 312 253 127 
3 255 256 312 
3 255 312 313 
3 312 127 128 
3 312 128 314 
3 314 128 308 
3 312 314 313 
3 313 314 308 
3 315 251 272 
3 315 272 267 
3 315 267 273 
3 317 316 309 
3 317 318 316 
3 319 316 318 
3 320 319 318 
3 251 321 309 
3 321 317 309 
3 323 317 321 
3 324 322 317 
3 324 317 323 
3 317 322 318 
3 316 325 310 
3 310 309 316 
3 326 311 310 
3 326 310 325 
3 319 325 316 
3 319 327 325 
3 326 325 327 
3 328 321 251 
3 323 321 328 
3 328 251 315 
3 329 328 315 
3 329 315 273 
3 328 330 323 
3 324 323 330 
3 329 331 330 
3 330 328 329 
3 308 111 132 
3 308 132 332 
3 332 132 131 
3 332 131 333 
3 131 138 334 
3 139 125 311 
3 334 138 140 
3 334 333 131 
3 308 332 313 
3 313 332 335 
3 335 332 333 
3 336 334 140 
3 139 311 326 
3 140 139 326 
3 140 326 337 
3 140 337 336 
3 327 337 326 
3 333 334 335 
3 334 336 338 
3 335 334 338 
3 335 338 339 
3 327 319 320 
3 341 322 324 
3 320 342 327 
3 340 327 342 
3 330 341 324 
3 318 343 320 
3 344 320 343 
3 322 343 318 
3 342 320 344 
3 345 322 341 
3 342 346 340 
3 347 341 330 
3 330 348 347 
3 331 348 330 
3 327 340 337 
3 336 337 349 
3 337 340 350 
3 337 350 349 
3 351 338 336 
3 338 351 352 
3 339 338 352 
3 336 349 351 
3 353 339 352 
3 354 294 295 
3 313 295 255 
3 355 295 313 
3 355 354 295 
3 356 354 355 
3 355 313 357 
3 357 356 355 
3 302 294 354 
3 358 298 302 
3 298 358 303 
3 359 302 354 
3 358 302 359 
3 359 354 356 
3 358 359 303 
3 360 303 359 
3 361 360 359 
3 361 359 356 
3 329 273 303 
3 360 329 303 
3 360 331 329 
3 361 356 363 
3 357 363 356 
3 363 357 362 
3 335 357 313 
3 357 335 339 
3 357 339 362 
3 360 364 331 
3 365 361 363 
3 360 366 364 
3 366 360 361 
3 365 366 361 
3 362 368 367 
3 367 363 362 
3 348 331 364 
3 365 363 367 
3 353 362 339 
3 368 362 353 
3 285 241 274 
3 275 369 274 
3 239 369 275 
3 369 239 277 
3 277 370 369 
3 277 276 370 
3 280 288 372 
3 373 281 286 
3 288 281 373 
3 280 372 282 
3 282 372 374 
3 375 284 282 
3 282 374 375 
3 375 289 284 
3 286 278 376 
3 377 288 373 
3 376 278 287 
3 286 376 373 
3 373 376 378 
3 372 288 377 
3 377 373 378 
3 371 274 369 
3 274 379 285 
3 274 371 379 
3 379 380 285 
3 381 371 369 
3 370 381 369 
3 370 382 381 
3 383 379 371 
3 382 383 371 
3 382 371 381 
3 384 380 379 
3 383 385 384 
3 384 379 383 
3 385 383 382 
3 382 386 385 
3 285 380 287 
3 378 376 387 
3 388 372 377 
3 387 287 380 
3 376 287 387 
3 389 387 380 
3 389 378 387 
3 388 377 378 
3 388 378 390 
3 390 391 388 
3 374 372 388 
3 392 375 374 
3 375 392 289 
3 393 289 392 
3 374 388 392 
3 391 392 388 
3 392 391 394 
3 394 393 392 
3 389 380 384 
3 395 396 384 
3 389 384 397 
3 389 397 378 
3 397 384 396 
3 397 390 378 
3 390 397 396 
3 395 384 385 
3 386 395 385 
3 398 396 395 
3 398 395 386 
3 391 390 400 
3 400 390 396 
3 394 391 400 
3 400 396 398 
3 394 400 399 
3 399 400 398 
3 304 401 276 
3 370 276 401 
3 304 297 402 
3 402 297 306 
3 306 305 403 
3 304 402 401 
3 289 404 307 
3 307 404 403 
3 403 305 307 
3 402 306 405 
3 403 405 306 
3 402 406 401 
3 405 406 402 
3 370 401 382 
3 382 401 407 
3 382 407 386 
3 405 403 408 
3 401 406 407 
3 406 405 408 
3 393 404 289 
3 408 403 404 
3 409 406 408 
3 393 409 404 
3 409 408 404 
3 409 393 394 
3 386 407 406 
3 406 398 386 
3 406 409 398 
3 399 398 409 
3 399 409 394 
3 341 410 345 
3 345 343 322 
3 344 346 342 
3 346 344 411 
3 347 410 341 
3 414 347 348 
3 414 348 413 
3 415 344 343 
3 415 343 345 
3 345 416 415 
3 345 410 416 
3 412 340 346 
3 411 344 415 
3 414 417 347 
3 340 412 350 
3 418 352 351 
3 352 418 353 
3 418 351 349 
3 349 350 419 
3 419 350 412 
3 349 419 420 
3 418 349 420 
3 421 418 420 
3 418 421 353 
3 422 353 421 
3 417 416 410 
3 424 415 416 
3 425 346 411 
3 412 346 425 
3 411 415 423 
3 415 424 423 
3 426 423 424 
3 427 416 417 
3 428 424 416 
3 424 428 426 
3 428 416 427 
3 425 411 423 
3 429 423 426 
3 425 423 429 
3 417 410 347 
3 430 417 414 
3 414 413 430 
3 430 427 417 
3 432 426 428 
3 433 428 427 
3 428 433 432 
3 434 432 433 
3 429 426 432 
3 432 435 429 
3 434 435 432 
3 436 435 434 
3 437 433 427 
3 434 433 437 
3 437 427 430 
3 438 434 437 
3 437 430 431 
3 439 437 431 
3 438 437 439 
3 438 440 436 
3 436 434 438 
3 440 438 439 
3 441 419 412 
3 441 412 425 
3 442 419 441 
3 425 429 441 
3 420 419 442 
3 443 420 442 
3 420 443 421 
3 442 441 444 
3 443 442 444 
3 421 443 422 
3 443 444 422 
3 441 429 435 
3 444 441 435 
3 436 444 435 
3 440 422 444 
3 440 444 436 
3 348 364 445 
3 445 364 366 
3 348 445 413 
3 366 365 447 
3 367 447 365 
3 446 366 447 
3 447 367 449 
3 368 449 367 
3 448 449 368 
3 366 446 445 
3 353 448 368 
3 422 448 353 
3 413 445 430 
3 445 431 430 
3 446 431 445 
3 448 450 449 
3 431 446 451 
3 447 449 451 
3 451 446 447 
3 450 451 449 
3 439 431 451 
3 451 450 439 
3 440 439 450 
3 450 448 422 
3 440 450 422 
