ply
format ascii 1.0
comment VTK generated PLY File
obj_info vtkPolyData points and polygons: vtk4.0
element vertex 202
property float x
property float y
property float z
element face 400
property list uchar int vertex_indices
end_header
-7.0796017646789551 -11.61722469329834 -3.4877762794494629 
-7.3615765571594238 -10.930153846740723 -3.5605807304382324 
-7.0478367805480957 -10.871912956237793 -3.6804509162902832 
-7.3955817222595215 -11.688475608825684 -3.250931978225708 
-7.0681195259094238 -11.835434913635254 -3.2124669551849365 
-7.4310245513916016 -11.296838760375977 -2.9422609806060791 
-7.5114197731018066 -10.869771003723145 -3.279038667678833 
-7.3570966720581055 -11.197727203369141 -2.7436537742614746 
-7.0623002052307129 -10.974377632141113 -2.6805503368377686 
-7.0222907066345215 -10.711597442626953 -2.7834162712097168 
-7.0488548278808594 -11.087981224060059 -2.41672682762146 
-5.1046285629272461 -11.170673370361328 -3.555586576461792 
-5.2916965484619141 -10.766935348510742 -3.6382572650909424 
-5.8669066429138184 -11.674354553222656 -3.3362033367156982 
-5.7220554351806641 -11.748147964477539 -2.9514362812042236 
-6.0038290023803711 -11.817215919494629 -2.2166471481323242 
-4.9130988121032715 -11.076513290405273 -2.527864933013916 
-4.022700309753418 -11.664316177368164 -3.3042738437652588 
-3.2484145164489746 -11.176416397094727 -3.571772575378418 
-5.072145938873291 -10.704460144042969 -2.7995312213897705 
-3.0527925491333008 -10.880805015563965 -2.7206873893737793 
-7.0586447715759277 -11.90974235534668 -0.0057587143965065479 
-7.4952483177185059 -11.341277122497559 0.25969484448432922 
-7.4884986877441406 -11.635042190551758 0.612110435962677 
-7.3639354705810547 -11.811777114868164 0.73932778835296631 
-7.3638763427734375 -11.155804634094238 0.42793163657188416 
-7.061424732208252 -11.058595657348633 0.12819895148277283 
-5.586799144744873 -11.116597175598145 -1.6343408823013306 
-5.6200385093688965 -11.872579574584961 -0.28865537047386169 
-5.7219586372375488 -11.080777168273926 -0.053171340376138687 
-1.8759651184082031 -11.837742805480957 -2.3018186092376709 
-2.2153551578521729 -11.019804954528809 -2.3872518539428711 
-2.408935546875 -11.677924156188965 -3.3454048633575439 
0.041605737060308456 -11.778260231018066 -2.9413464069366455 
-0.0037036770954728127 -10.754267692565918 -3.6343994140625 
3.4039428234100342 -11.196406364440918 -3.5632286071777344 
1.1824055910110474 -11.342796325683594 -3.4964792728424072 
-0.033993981778621674 -10.877897262573242 -2.7221565246582031 
1.08153235912323 -11.685132026672363 -3.3082501888275146 
-2.7976903915405273 -11.870866775512695 -1.5578867197036743 
-3.6250374317169189 -11.040562629699707 -1.5409022569656372 
-3.1386337280273438 -11.018031120300293 0.63864773511886597 
0.77608776092529297 -10.998693466186523 -1.9759942293167114 
0.97486591339111328 -11.031058311462402 -0.78387945890426636 
0.031484883278608322 -11.896981239318848 0.56359457969665527 
-0.88518309593200684 -11.033373832702637 0.90873831510543823 
3.2873184680938721 -11.849522590637207 -2.0684299468994141 
1.8895025253295898 -10.826242446899414 -2.7076935768127441 
2.6269099712371826 -11.003332138061523 -2.3697085380554199 
3.2503139972686768 -11.685532569885254 -3.339024543762207 
5.7246065139770508 -10.757615089416504 -3.6288836002349854 
5.6459016799926758 -11.174261093139648 -3.5539250373840332 
5.4123806953430176 -11.778460502624512 -2.7904314994812012 
4.7902407646179199 -11.012256622314453 -2.6765873432159424 
5.1651062965393066 -10.721899032592773 -2.8060915470123291 
5.4938883781433105 -11.661920547485352 -3.3100662231445312 
5.7984452247619629 -11.123888969421387 -2.2496843338012695 
2.3250610828399658 -11.889195442199707 -0.80632627010345459 
1.7002303600311279 -11.023001670837402 0.83172047138214111 
3.4672532081604004 -11.03767204284668 -1.283921480178833 
5.7862710952758789 -11.860798835754395 -0.98304605484008789 
5.6938190460205078 -11.868669509887695 0.79970735311508179 
4.062934398651123 -11.035526275634766 0.37129932641983032 
5.596503734588623 -11.075976371765137 -0.080156855285167694 
7.093625545501709 -11.629610061645508 -3.4986860752105713 
7.0679683685302734 -10.549845695495605 -3.7127692699432373 
7.1481566429138184 -10.977175712585449 -2.6764392852783203 
7.0683813095092773 -11.073402404785156 -2.4629285335540771 
7.1032242774963379 -11.831972122192383 -3.2405922412872314 
7.0488834381103516 -10.71928596496582 -2.7883074283599854 
7.3868317604064941 -10.903018951416016 -3.569493293762207 
7.4255075454711914 -11.668931007385254 -3.2744958400726318 
7.5131940841674805 -11.138364791870117 -3.270897388458252 
7.4738602638244629 -11.332551956176758 -2.9363763332366943 
7.3843770027160645 -11.037240982055664 -2.861217737197876 
7.4596381187438965 -11.739813804626465 -1.8193951845169067 
7.3873672485351562 -11.193686485290527 -2.393002986907959 
7.0905752182006836 -11.908517837524414 -0.87318509817123413 
7.0652318000793457 -11.05805778503418 -0.15286777913570404 
7.0778689384460449 -11.065605163574219 2.3754386901855469 
7.5041418075561523 -11.631989479064941 1.3881516456604004 
7.3913092613220215 -11.786137580871582 3.1585276126861572 
-7.3646373748779297 -9.9170598983764648 -3.5647125244140625 
-7.0562043190002441 -10.128231048583984 -3.6822786331176758 
-7.0493545532226562 -9.8006134033203125 -3.6098868846893311 
-7.5040760040283203 -9.953155517578125 -3.2786865234375 
-7.3943452835083008 -9.9366321563720703 -2.9556510448455811 
-7.1885466575622559 -9.6020908355712891 -3.2715044021606445 
-7.0803079605102539 -9.7459478378295898 -2.9117634296417236 
-7.0635194778442383 -10.150667190551758 -2.8098471164703369 
-4.8623228073120117 -10.16909122467041 -3.6339387893676758 
-4.0306200981140137 -9.8537740707397461 -3.5742700099945068 
-5.8999338150024414 -9.6644773483276367 -3.2774581909179688 
-5.2367024421691895 -9.8057374954223633 -2.946253776550293 
-4.8644213676452637 -10.16978931427002 -2.8343775272369385 
-2.9986615180969238 -9.6506633758544922 -3.2764286994934082 
-2.726696252822876 -9.7680444717407227 -2.9280099868774414 
-2.8966243267059326 -10.160251617431641 -2.7875514030456543 
-0.038113560527563095 -10.144916534423828 -3.6359524726867676 
0.39964008331298828 -9.8445549011230469 -3.5758376121520996 
1.1646873950958252 -9.7361583709716797 -2.9754979610443115 
0.91944324970245361 -10.146106719970703 -2.7895689010620117 
1.3586724996566772 -9.643275260925293 -3.2731001377105713 
1.3289811611175537 -9.8676061630249023 -2.8660240173339844 
3.0467431545257568 -10.150838851928711 -3.6468136310577393 
3.1864016056060791 -9.8386259078979492 -3.587212085723877 
5.5917749404907227 -9.8636817932128906 -3.5630624294281006 
5.7078194618225098 -9.8044672012329102 -2.9527347087860107 
5.2420997619628906 -10.132790565490723 -2.8505606651306152 
5.7943735122680664 -9.6692276000976562 -3.2737827301025391 
5.9870438575744629 -10.165995597839355 -3.637998104095459 
7.0719709396362305 -9.7766304016113281 -3.6213555335998535 
7.2307834625244141 -9.6187763214111328 -3.2699861526489258 
7.0847530364990234 -9.7832050323486328 -2.8650000095367432 
7.3941130638122559 -9.919062614440918 -3.5704398155212402 
7.5301346778869629 -9.9430761337280273 -3.2744722366333008 
7.4197063446044922 -9.9385662078857422 -2.9597234725952148 
-7.037224292755127 -11.07065486907959 2.4062607288360596 
-7.4657168388366699 -11.640714645385742 3.1436786651611328 
-7.3603439331054688 -11.782041549682617 3.2015771865844727 
-7.4724435806274414 -11.343483924865723 2.8063571453094482 
-7.3595647811889648 -11.172723770141602 2.6688411235809326 
-5.7800312042236328 -11.112026214599609 1.5288791656494141 
-5.7787690162658691 -11.843538284301758 3.1931388378143311 
-5.1052966117858887 -11.079672813415527 2.3363990783691406 
-7.0679163932800293 -11.897707939147949 3.2076585292816162 
-7.068842887878418 -10.988036155700684 2.6160144805908203 
-7.3823652267456055 -10.717524528503418 2.9009194374084473 
-7.0317740440368652 -10.726363182067871 2.7517373561859131 
-7.5045781135559082 -11.140917778015137 3.217261791229248 
-7.3549833297729492 -11.52608585357666 3.4809012413024902 
-7.074005126953125 -11.599536895751953 3.5634050369262695 
-7.0824437141418457 -9.8295793533325195 3.6009719371795654 
-4.9198875427246094 -11.006507873535156 2.6236538887023926 
-5.2882289886474609 -10.730891227722168 2.8023149967193604 
-5.1538572311401367 -11.639839172363281 3.4423456192016602 
-2.2474534511566162 -11.861958503723145 2.8979854583740234 
-5.1313190460205078 -11.404272079467773 3.5080091953277588 
-5.5144762992858887 -10.16734790802002 3.5444867610931396 
-3.6978709697723389 -10.989699363708496 1.9595341682434082 
-2.1974422931671143 -11.013100624084473 2.3286037445068359 
-0.011873183771967888 -11.003824234008789 1.9695631265640259 
1.5892635583877563 -11.856353759765625 2.9249417781829834 
2.9789152145385742 -11.003396034240723 2.3347256183624268 
-3.6731336116790771 -10.730481147766113 2.740802526473999 
-0.74569118022918701 -10.94239330291748 2.6257143020629883 
-0.70799392461776733 -10.754082679748535 2.7361338138580322 
-0.23101118206977844 -11.831488609313965 3.2154848575592041 
-1.1169059276580811 -11.638350486755371 3.4530539512634277 
-0.34733450412750244 -11.404654502868652 3.5210628509521484 
0.38914486765861511 -10.137813568115234 3.5583150386810303 
3.105905294418335 -10.982434272766113 2.0037651062011719 
5.1830458641052246 -11.851739883422852 2.9436745643615723 
5.6466684341430664 -11.109661102294922 1.4170323610305786 
5.0389657020568848 -11.052698135375977 2.5937991142272949 
2.417475700378418 -10.736996650695801 2.7357356548309326 
3.8535759449005127 -10.942313194274902 2.62837815284729 
4.9080467224121094 -11.638556480407715 3.450535774230957 
5.331855297088623 -11.825387001037598 3.2136192321777344 
5.5004129409790039 -11.387821197509766 3.5061948299407959 
5.3795838356018066 -10.750452041625977 2.7899904251098633 
7.0862116813659668 -11.885364532470703 3.2010164260864258 
7.4966335296630859 -11.339743614196777 2.4677789211273193 
7.3909759521484375 -11.172748565673828 2.664344310760498 
7.1396856307983398 -11.640261650085449 3.5179719924926758 
7.0437521934509277 -10.724611282348633 2.7505853176116943 
7.1413364410400391 -10.985718727111816 2.6202757358551025 
7.0668387413024902 -11.330414772033691 3.5719170570373535 
5.9854116439819336 -10.154029846191406 3.5559544563293457 
7.5180158615112305 -11.622758865356445 3.1327612400054932 
7.5371890068054199 -11.176756858825684 3.1980438232421875 
7.4146780967712402 -10.773421287536621 2.9103121757507324 
7.3724408149719238 -11.519979476928711 3.4763247966766357 
-7.3851747512817383 -9.9257078170776367 2.9092216491699219 
-7.0417652130126953 -9.9637317657470703 2.78269362449646 
-7.0570788383483887 -9.705902099609375 2.9208428859710693 
-7.508460521697998 -9.9510278701782227 3.2232954502105713 
-7.3620553016662598 -9.9140167236328125 3.5040526390075684 
-7.2566771507263184 -9.633763313293457 3.2137036323547363 
-5.505488395690918 -10.163205146789551 2.8177289962768555 
-5.7884750366210938 -9.7860355377197266 2.9114449024200439 
-5.8669281005859375 -9.6572408676147461 3.2175207138061523 
-5.8696999549865723 -9.8699216842651367 3.5095865726470947 
-3.4755170345306396 -9.8690605163574219 2.8256521224975586 
-0.76380372047424316 -9.8667011260986328 3.5121228694915771 
-3.7657551765441895 -10.167964935302734 2.7555639743804932 
-0.19008533656597137 -9.7895231246948242 2.8884429931640625 
-0.0029552457854151726 -10.175814628601074 2.7721977233886719 
0.44363197684288025 -9.6551399230957031 3.2176556587219238 
2.7204422950744629 -9.7795238494873047 2.8723335266113281 
2.9959359169006348 -10.167945861816406 2.7593278884887695 
5.7862696647644043 -9.8166208267211914 2.8975372314453125 
5.5591926574707031 -9.6653823852539062 3.2198858261108398 
6.0302882194519043 -9.8654708862304688 3.5116314888000488 
5.6561088562011719 -10.1622314453125 2.8145182132720947 
7.0739989280700684 -9.9428768157958984 2.785944938659668 
7.085822582244873 -9.6939077377319336 2.9219202995300293 
7.060420036315918 -9.5841703414916992 3.2217381000518799 
7.0867595672607422 -9.8166303634643555 3.6039581298828125 
7.4096245765686035 -9.9249935150146484 2.9074928760528564 
7.5090847015380859 -9.7762050628662109 3.2311079502105713 
7.3949456214904785 -9.9230861663818359 3.5203983783721924 
3 0 1 2 
3 3 0 4 
3 6 1 3 
3 1 0 3 
3 5 6 3 
3 9 5 7 
3 9 7 8 
3 7 10 8 
3 11 0 2 
3 12 11 2 
3 4 0 13 
3 4 13 14 
3 11 13 0 
3 4 14 15 
3 8 10 16 
3 18 13 11 
3 13 17 14 
3 19 9 8 
3 20 19 8 
3 20 8 16 
3 3 4 21 
3 3 22 5 
3 22 3 23 
3 7 5 22 
3 23 3 24 
3 24 3 21 
3 22 25 7 
3 10 7 25 
3 25 26 10 
3 4 15 21 
3 16 10 27 
3 21 15 28 
3 29 27 10 
3 29 10 26 
3 18 11 12 
3 18 17 13 
3 15 14 30 
3 16 31 20 
3 32 17 18 
3 14 17 32 
3 14 32 33 
3 30 14 33 
3 34 18 12 
3 36 32 18 
3 37 20 31 
3 33 32 38 
3 18 35 36 
3 15 30 39 
3 40 16 27 
3 40 31 16 
3 28 15 39 
3 40 27 29 
3 40 29 41 
3 43 42 31 
3 43 31 41 
3 40 41 31 
3 35 18 34 
3 36 38 32 
3 46 30 33 
3 48 47 37 
3 48 37 31 
3 49 38 36 
3 33 38 49 
3 34 50 35 
3 50 51 35 
3 35 49 36 
3 33 49 52 
3 53 47 48 
3 54 47 53 
3 35 55 49 
3 35 51 55 
3 52 46 33 
3 56 53 48 
3 46 39 30 
3 48 31 42 
3 39 46 57 
3 48 42 43 
3 44 39 57 
3 43 59 48 
3 56 48 59 
3 61 57 46 
3 60 61 46 
3 63 59 62 
3 51 65 64 
3 65 51 50 
3 49 55 52 
3 66 54 53 
3 67 53 56 
3 53 67 66 
3 64 55 51 
3 52 55 68 
3 68 55 64 
3 66 69 54 
3 64 65 70 
3 68 64 71 
3 71 72 73 
3 70 71 64 
3 71 70 72 
3 74 73 72 
3 68 71 75 
3 66 74 69 
3 76 74 66 
3 76 66 67 
3 73 74 76 
3 46 52 60 
3 52 68 60 
3 60 68 77 
3 56 78 67 
3 63 56 59 
3 78 56 63 
3 61 60 77 
3 75 77 68 
3 75 71 73 
3 76 67 78 
3 73 80 75 
3 77 75 81 
3 80 81 75 
3 76 78 79 
3 82 83 2 
3 82 2 1 
3 82 84 83 
3 6 82 1 
3 6 85 82 
3 86 85 6 
3 86 6 5 
3 87 82 85 
3 84 82 87 
3 85 86 87 
3 86 88 87 
3 86 5 9 
3 86 9 89 
3 86 89 88 
3 83 12 2 
3 90 12 83 
3 90 83 84 
3 84 91 90 
3 92 84 87 
3 88 93 92 
3 92 87 88 
3 91 84 92 
3 89 9 19 
3 94 89 19 
3 88 89 93 
3 93 89 94 
3 90 34 12 
3 92 95 91 
3 96 95 92 
3 96 92 93 
3 19 20 94 
3 97 94 20 
3 93 94 97 
3 93 97 96 
3 90 98 34 
3 91 98 90 
3 91 99 98 
3 99 91 95 
3 100 95 96 
3 97 20 37 
3 97 37 101 
3 96 97 101 
3 95 102 99 
3 100 102 95 
3 103 96 101 
3 96 103 100 
3 104 34 98 
3 104 98 99 
3 105 104 99 
3 47 101 37 
3 105 99 102 
3 104 50 34 
3 105 106 104 
3 100 107 102 
3 108 101 47 
3 108 47 54 
3 103 101 108 
3 107 103 108 
3 100 103 107 
3 109 105 102 
3 109 106 105 
3 109 102 107 
3 104 110 50 
3 106 110 104 
3 65 50 110 
3 111 65 110 
3 111 110 106 
3 111 106 109 
3 109 112 111 
3 113 112 109 
3 113 109 107 
3 54 69 108 
3 113 108 69 
3 108 113 107 
3 114 70 65 
3 114 65 111 
3 72 70 114 
3 72 114 115 
3 74 72 116 
3 72 115 116 
3 112 114 111 
3 115 114 112 
3 113 116 112 
3 112 116 115 
3 69 74 116 
3 116 113 69 
3 117 26 25 
3 119 118 23 
3 23 24 119 
3 21 119 24 
3 120 22 23 
3 120 23 118 
3 121 25 22 
3 121 22 120 
3 117 25 121 
3 117 122 29 
3 29 26 117 
3 21 28 123 
3 124 122 117 
3 119 21 125 
3 121 126 117 
3 127 121 120 
3 128 126 121 
3 121 127 128 
3 129 120 118 
3 119 130 118 
3 131 130 119 
3 131 119 125 
3 129 118 130 
3 129 127 120 
3 130 131 132 
3 125 21 123 
3 117 133 124 
3 133 117 126 
3 126 128 134 
3 126 134 133 
3 131 125 123 
3 135 131 123 
3 131 135 137 
3 131 137 138 
3 41 29 122 
3 136 123 28 
3 28 39 44 
3 44 136 28 
3 122 124 41 
3 139 41 124 
3 140 139 124 
3 45 41 139 
3 45 43 41 
3 140 45 139 
3 141 45 140 
3 136 44 142 
3 143 141 140 
3 134 144 133 
3 140 124 133 
3 133 145 140 
3 145 133 144 
3 144 146 145 
3 123 136 147 
3 148 135 123 
3 123 147 148 
3 137 135 148 
3 137 148 149 
3 138 137 149 
3 143 140 145 
3 147 136 142 
3 43 45 141 
3 58 43 141 
3 141 151 58 
3 143 151 141 
3 44 57 61 
3 59 43 58 
3 62 59 58 
3 44 61 152 
3 151 62 58 
3 142 44 152 
3 153 62 151 
3 154 153 151 
3 143 154 151 
3 146 155 145 
3 156 143 145 
3 145 155 156 
3 157 148 147 
3 149 148 157 
3 147 142 158 
3 158 142 152 
3 158 157 147 
3 159 149 157 
3 156 155 160 
3 154 143 156 
3 156 160 154 
3 62 153 63 
3 153 78 63 
3 61 77 161 
3 79 78 153 
3 154 79 153 
3 80 73 162 
3 163 76 79 
3 163 162 73 
3 73 76 163 
3 161 77 81 
3 158 164 157 
3 164 159 157 
3 152 61 161 
3 160 165 154 
3 166 79 154 
3 166 154 165 
3 161 158 152 
3 161 164 158 
3 167 159 164 
3 168 159 167 
3 81 80 169 
3 169 80 162 
3 169 162 170 
3 163 79 166 
3 163 170 162 
3 170 163 171 
3 165 171 163 
3 165 163 166 
3 161 81 164 
3 81 172 164 
3 169 172 81 
3 170 172 169 
3 164 172 167 
3 173 174 128 
3 128 127 173 
3 175 174 173 
3 129 176 173 
3 173 127 129 
3 177 176 129 
3 129 130 177 
3 178 173 176 
3 175 173 178 
3 176 177 178 
3 177 132 178 
3 130 132 177 
3 174 179 128 
3 134 128 179 
3 180 174 175 
3 179 174 180 
3 181 175 178 
3 181 180 175 
3 181 178 132 
3 132 182 181 
3 183 179 180 
3 138 132 131 
3 132 138 182 
3 182 138 184 
3 179 185 134 
3 144 134 185 
3 183 185 179 
3 182 184 181 
3 180 186 183 
3 186 180 181 
3 144 187 146 
3 185 187 144 
3 187 185 183 
3 183 186 187 
3 188 186 181 
3 188 181 184 
3 184 138 150 
3 150 138 149 
3 155 146 187 
3 189 186 188 
3 190 155 187 
3 186 190 187 
3 189 190 186 
3 150 168 184 
3 160 155 190 
3 189 191 190 
3 192 189 188 
3 192 188 184 
3 184 193 192 
3 159 150 149 
3 150 159 168 
3 184 168 193 
3 190 194 160 
3 194 190 191 
3 192 191 189 
3 165 160 194 
3 195 165 194 
3 195 194 191 
3 191 196 195 
3 192 197 191 
3 193 197 192 
3 196 191 197 
3 198 197 193 
3 168 167 198 
3 198 193 168 
3 199 171 165 
3 199 165 195 
3 199 195 196 
3 170 171 199 
3 170 199 200 
3 170 201 172 
3 201 170 200 
3 200 199 196 
3 200 196 197 
3 198 201 200 
3 200 197 198 
3 172 201 167 
3 201 198 167 
