ply
format ascii 1.0
comment VTK generated PLY File
obj_info vtkPolyData points and polygons: vtk4.0
element vertex 452
property float x
property float y
property float z
element face 900
property list uchar int vertex_indices
end_header
-2.6569299697875977 -5.2963485717773438 -9.5196809768676758 
-2.8658111095428467 -4.9434523582458496 -9.5065336227416992 
-2.5702993869781494 -4.9422216415405273 -9.7269277572631836 
-2.8374912738800049 -5.2826113700866699 -9.1578235626220703 
-2.6437625885009766 -5.4172186851501465 -9.1811971664428711 
-2.9740016460418701 -4.9444093704223633 -9.1307897567749023 
-2.6926736831665039 -4.5579614639282227 -9.5547542572021484 
-2.8920929431915283 -4.6059842109680176 -9.1448745727539062 
-2.6445000171661377 -4.3988375663757324 -9.1646938323974609 
-2.3075568675994873 -5.3485798835754395 -9.5645170211791992 
-2.3032739162445068 -5.4675230979919434 -9.1761417388916016 
-0.85027235746383667 -5.4314427375793457 -9.1403465270996094 
-0.91401177644729614 -5.3079996109008789 -9.5250768661499023 
-0.8766363263130188 -4.9428572654724121 -9.6951093673706055 
1.1460607051849365 -5.2824611663818359 -9.563140869140625 
-2.3194649219512939 -4.6018843650817871 -9.6473569869995117 
-2.3154911994934082 -4.4510412216186523 -9.5064249038696289 
-2.2913503646850586 -4.3401279449462891 -9.1175127029418945 
-0.84624111652374268 -4.5375394821166992 -9.5645694732666016 
-0.9341016411781311 -4.3902020454406738 -9.1540822982788086 
1.2263369560241699 -4.6041774749755859 -9.6219682693481445 
2.4518470764160156 -4.4575319290161133 -9.5086889266967773 
-2.8160390853881836 -5.2847962379455566 -7.4581155776977539 
-2.9345502853393555 -4.9473519325256348 -7.2194833755493164 
-2.6434228420257568 -5.4273133277893066 -7.4736723899841309 
-2.6423087120056152 -4.4165863990783691 -7.4741082191467285 
-2.8635842800140381 -4.6062979698181152 -7.4661531448364258 
-2.6747345924377441 -5.3154458999633789 -7.1048173904418945 
-2.5672318935394287 -4.9484705924987793 -6.8776435852050781 
-2.7058811187744141 -4.5555253028869629 -7.0821352005004883 
-2.329709529876709 -5.4631772041320801 -7.4363670349121094 
0.72864997386932373 -5.4331116676330566 -9.1696481704711914 
-0.53233802318572998 -5.3800725936889648 -7.4982070922851562 
-0.64087480306625366 -4.414665699005127 -7.505561351776123 
0.91021782159805298 -4.3795609474182129 -9.1492338180541992 
0.055465880781412125 -4.4293313026428223 -7.1756672859191895 
-2.2966885566711426 -5.3988561630249023 -7.1332273483276367 
-2.3022458553314209 -5.288637638092041 -7.0019345283508301 
-0.62899637222290039 -5.2860012054443359 -7.1276893615722656 
-0.95346945524215698 -4.9397106170654297 -6.9190030097961426 
-0.0077669369056820869 -5.333946704864502 -7.0825629234313965 
-0.56714123487472534 -4.9426484107971191 -6.8244457244873047 
0.11589775234460831 -5.2829408645629883 -6.6546339988708496 
-0.26108244061470032 -5.1839208602905273 -6.7224826812744141 
-0.48301765322685242 -4.9320616722106934 -6.4323697090148926 
-2.2682099342346191 -4.3594970703125 -7.4649262428283691 
-2.3133640289306641 -4.4362478256225586 -7.1356792449951172 
-0.68892759084701538 -4.5002503395080566 -7.1404099464416504 
-2.3038933277130127 -4.6042094230651855 -6.9554553031921387 
-0.68065232038497925 -4.6061482429504395 -7.0193624496459961 
-0.2661864161491394 -4.4911446571350098 -6.9358057975769043 
-0.45141443610191345 -4.6047782897949219 -6.7971396446228027 
0.081322453916072845 -4.3389358520507812 -6.6947436332702637 
-0.50756418704986572 -4.6033711433410645 -6.4280166625976562 
-0.24364840984344482 -4.1454205513000488 -6.2551054954528809 
-0.60071080923080444 -5.0905771255493164 -5.575223445892334 
-0.26690748333930969 -5.3043556213378906 -5.8404922485351562 
0.059974223375320435 -5.3997831344604492 -5.4662694931030273 
-0.88526624441146851 -4.9245424270629883 -4.8772096633911133 
-0.61019295454025269 -5.2719316482543945 -4.6105866432189941 
-0.76947641372680664 -4.602747917175293 -5.6851673126220703 
-0.59731745719909668 -4.2562823295593262 -5.9592657089233398 
0.070826537907123566 -3.9423491954803467 -6.0209517478942871 
-0.84213274717330933 -4.2668733596801758 -5.4067754745483398 
-0.61222577095031738 -3.9274988174438477 -5.5288043022155762 
-0.91510754823684692 -3.9138369560241699 -4.9645600318908691 
-0.60561501979827881 -3.5812017917633057 -4.9815497398376465 
-0.2791098952293396 -3.5614006519317627 -5.1859469413757324 
0.078599259257316589 -3.3397877216339111 -4.771571159362793 
-0.27841457724571228 -5.4381093978881836 -4.0583672523498535 
-0.63015949726104736 -5.3623948097229004 -3.5821347236633301 
-1.0961352586746216 -4.9777264595031738 -3.7383460998535156 
-0.94574105739593506 -5.1761274337768555 -3.4174742698669434 
0.071741305291652679 -5.467893123626709 -3.1837892532348633 
-1.4099082946777344 -4.2628326416015625 -3.2441565990447998 
-1.3623634576797485 -3.8793210983276367 -3.4725635051727295 
-1.0987446308135986 -4.617579460144043 -4.4822330474853516 
-1.1058375835418701 -4.1062564849853516 -4.5992827415466309 
-0.92086708545684814 -3.6022229194641113 -4.567326545715332 
-1.4297457933425903 -4.6322822570800781 -2.7743871212005615 
-1.1992148160934448 -3.5726222991943359 -3.8731691837310791 
-1.3065303564071655 -4.9851894378662109 -2.2788863182067871 
-0.93215245008468628 -5.2728867530822754 -2.449002742767334 
-1.4848486185073853 -3.3409531116485596 -2.6160469055175781 
-1.5991859436035156 -4.128476619720459 -2.1742825508117676 
-1.4561597108840942 -4.9419145584106445 -0.90083199739456177 
-1.2595061063766479 -5.2566337585449219 -0.08239852637052536 
-0.64606964588165283 -5.4172706604003906 -0.83649414777755737 
-0.26716247200965881 -5.4803791046142578 -0.2935434877872467 
-1.000170111656189 -5.360933780670166 -0.15765666961669922 
-1.5961620807647705 -3.3438634872436523 -1.9071806669235229 
-1.7759953737258911 -4.2582845687866211 -0.54439586400985718 
-1.6874065399169922 -4.6241836547851562 -0.58053731918334961 
-1.8301033973693848 -3.9222939014434814 -0.23322977125644684 
2.4767501354217529 -5.333216667175293 -9.5747280120849609 
1.1233092546463013 -4.9442386627197266 -9.7077341079711914 
2.4397733211517334 -5.458378791809082 -9.1689577102661133 
2.6927707195281982 -4.9452109336853027 -9.7448530197143555 
2.7916023731231689 -5.2951846122741699 -9.5203676223754883 
2.7760639190673828 -5.4054574966430664 -9.1767110824584961 
2.4462161064147949 -4.603419303894043 -9.6652889251708984 
2.4521944522857666 -4.3486089706420898 -9.1731224060058594 
2.8338992595672607 -4.5593748092651367 -9.5549249649047852 
2.7745800018310547 -4.4025626182556152 -9.1856584548950195 
2.9949157238006592 -4.9434523582458496 -9.5065336227416992 
2.9488430023193359 -5.2800869941711426 -9.1751813888549805 
3.0833029747009277 -4.943181037902832 -9.1698522567749023 
3.0087680816650391 -4.6051912307739258 -9.1649084091186523 
0.55626904964447021 -5.393831729888916 -7.4540386199951172 
2.4401624202728271 -5.4581503868103027 -7.4502887725830078 
2.7766613960266113 -5.4050064086914062 -7.4736599922180176 
2.4388368129730225 -4.3570094108581543 -7.4636883735656738 
0.75590574741363525 -4.4101061820983887 -7.4888677597045898 
0.76508331298828125 -5.3015761375427246 -7.1079611778259277 
0.380982905626297 -5.2058830261230469 -6.813542366027832 
0.66370081901550293 -4.945216178894043 -6.8369989395141602 
0.54366719722747803 -4.9965105056762695 -6.4632511138916016 
1.1103969812393188 -4.9405922889709473 -6.9246244430541992 
2.4461798667907715 -5.3530392646789551 -7.0552964210510254 
2.796452522277832 -5.3009753227233887 -7.1174554824829102 
2.7043719291687012 -4.9435162544250488 -6.8827567100524902 
0.52533489465713501 -4.4764204025268555 -7.1580462455749512 
0.5488702654838562 -4.6047782897949219 -6.7971396446228027 
0.77196300029754639 -4.6055188179016113 -6.9953083992004395 
0.40548244118690491 -4.4868650436401367 -6.7971396446228027 
0.58453696966171265 -4.6047782897949219 -6.4584660530090332 
0.3802286684513092 -4.250089168548584 -6.3660497665405273 
2.4633233547210693 -4.6003179550170898 -6.9660506248474121 
2.4504117965698242 -4.4268484115600586 -7.1354889869689941 
2.7762000560760498 -4.4003233909606934 -7.4744873046875 
2.8373923301696777 -4.542243480682373 -7.0816164016723633 
2.9450438022613525 -5.2822871208190918 -7.476020336151123 
3.0609610080718994 -4.9451203346252441 -7.2342357635498047 
3.000502347946167 -4.605555534362793 -7.466392993927002 
0.3965986967086792 -5.2904524803161621 -5.8446230888366699 
0.72936868667602539 -4.9671730995178223 -5.8795466423034668 
0.73289138078689575 -5.2657003402709961 -4.5784759521484375 
0.39931151270866394 -5.4184675216674805 -4.2978601455688477 
1.0086089372634888 -4.9210095405578613 -4.8594708442687988 
0.8146432638168335 -4.6130733489990234 -5.9140849113464355 
0.70498484373092651 -4.244178295135498 -5.9601268768310547 
0.40979942679405212 -3.8754920959472656 -5.7915892601013184 
0.98412001132965088 -4.0375957489013672 -5.1787009239196777 
1.200714111328125 -4.619288444519043 -4.536567211151123 
1.1893575191497803 -4.2604436874389648 -4.7018084526062012 
0.74401766061782837 -3.9297447204589844 -5.5013027191162109 
0.78331053256988525 -3.5786206722259521 -4.9223265647888184 
0.77308297157287598 -5.3302946090698242 -3.7480614185333252 
1.0750807523727417 -5.1172752380371094 -3.7093751430511475 
1.3953193426132202 -4.9146466255187988 -2.8039002418518066 
1.3321951627731323 -3.7029776573181152 -3.9073441028594971 
1.1314687728881836 -3.5833017826080322 -4.3398942947387695 
1.5077869892120361 -4.2617225646972656 -3.2907376289367676 
1.5405328273773193 -3.7511804103851318 -3.1351914405822754 
1.0590226650238037 -5.2644853591918945 -2.3456895351409912 
0.45857241749763489 -5.4609823226928711 -0.68359875679016113 
0.79867684841156006 -5.4047589302062988 -0.62030190229415894 
1.542115330696106 -4.6322555541992188 -2.7355194091796875 
1.6700868606567383 -4.1632800102233887 -2.3586387634277344 
1.6293950080871582 -3.2796669006347656 -2.3692986965179443 
1.4990187883377075 -4.9985404014587402 -0.87592107057571411 
1.101165771484375 -5.2964968681335449 -0.67882734537124634 
1.8304183483123779 -4.1170406341552734 -0.77249109745025635 
1.7294758558273315 -4.5926055908203125 -0.7940104603767395 
1.770885705947876 -3.3956911563873291 -0.80873805284500122 
-0.60388660430908203 -3.1837563514709473 -4.1994876861572266 
-0.98125040531158447 -3.2460212707519531 -3.9042818546295166 
-0.51000422239303589 -2.8747758865356445 -3.533360481262207 
0.33208733797073364 -2.8135397434234619 -3.4307694435119629 
-1.2861454486846924 -3.2528750896453857 -3.2324650287628174 
-1.3381108045578003 -2.8686952590942383 -2.4462547302246094 
-0.95719444751739502 -2.9085385799407959 -3.2692279815673828 
-0.50886404514312744 -2.4564201831817627 -2.3119492530822754 
0.62673622369766235 -2.4622726440429688 -2.3587658405303955 
-0.97134566307067871 -2.5245914459228516 -2.2146823406219482 
-1.5391471385955811 -2.9127295017242432 -1.396405816078186 
-1.3060625791549683 -2.5100162029266357 -1.2283834218978882 
-1.4665104150772095 -2.5855476856231689 -0.64165043830871582 
0.24284793436527252 -2.0984821319580078 -0.744159996509552 
-0.98223376274108887 -2.1214742660522461 -0.28348609805107117 
-0.56801855564117432 -2.0633835792541504 -0.41644835472106934 
0.42171123623847961 -3.2326393127441406 -4.4703812599182129 
0.74718725681304932 -3.2249171733856201 -4.2759490013122559 
0.75132632255554199 -2.8686215877532959 -3.4535994529724121 
1.0768393278121948 -3.25972580909729 -3.9476790428161621 
1.3826791048049927 -3.2518546581268311 -3.2594923973083496 
1.102547287940979 -2.8669404983520508 -3.1456203460693359 
1.4226123094558716 -2.9070978164672852 -2.5987043380737305 
1.1052968502044678 -2.4895803928375244 -2.0829110145568848 
1.3969370126724243 -2.6172385215759277 -1.8651577234268188 
0.75829696655273438 -2.1209015846252441 -0.66683989763259888 
1.122076153755188 -2.1807315349578857 -0.53827321529388428 
1.4083644151687622 -2.2769260406494141 -0.10729698091745377 
1.587470531463623 -2.9132001399993896 -1.8944746255874634 
1.6580386161804199 -2.8830904960632324 -1.0039761066436768 
1.5742489099502563 -2.5767242908477783 -0.52315115928649902 
-4.6969938278198242 -4.953376293182373 1.654574990272522 
-4.3553223609924316 -4.9544816017150879 1.3082236051559448 
-3.9384849071502686 -5.158052921295166 1.3385169506072998 
-3.8954775333404541 -4.9340853691101074 1.1183534860610962 
-4.2473831176757812 -5.2468538284301758 1.6859890222549438 
-2.8476846218109131 -5.1004371643066406 1.0190298557281494 
-2.5134451389312744 -4.943514347076416 0.76200461387634277 
-3.038313627243042 -5.2422604560852051 1.3132413625717163 
-2.1523506641387939 -5.3554883003234863 1.6027106046676636 
-4.735041618347168 -4.5504093170166016 1.6352595090866089 
-4.3836374282836914 -4.541903018951416 1.289783239364624 
-3.7367439270019531 -4.6128859519958496 1.0417145490646362 
-3.9580960273742676 -4.2867350578308105 1.3575727939605713 
-4.2101178169250488 -4.2093997001647949 1.6592358350753784 
-2.7107613086700439 -4.6176605224609375 0.76122033596038818 
-2.7449948787689209 -4.2656927108764648 0.98373568058013916 
-3.3347649574279785 -4.2312211990356445 1.2660987377166748 
-3.0244812965393066 -4.0685172080993652 1.6508889198303223 
-2.7529456615447998 -4.0808415412902832 1.3384840488433838 
-2.4276108741760254 -3.9087884426116943 1.5861713886260986 
-1.6231470108032227 -4.9581408500671387 -0.12880130112171173 
-1.4958109855651855 -5.3314242362976074 0.67480581998825073 
-1.9768052101135254 -4.9315900802612305 0.3666120171546936 
-1.7957401275634766 -5.143559455871582 0.50117790699005127 
-0.013449804857373238 -5.5008702278137207 0.7851598858833313 
-1.8302644491195679 -3.5355401039123535 0.26676177978515625 
-2.2358348369598389 -4.5893712043762207 0.43755871057510376 
-1.8961023092269897 -4.6022791862487793 0.023945366963744164 
-2.0138709545135498 -4.2462863922119141 0.20685954391956329 
-2.0339274406433105 -3.9035069942474365 0.5201374888420105 
-2.1979916095733643 -5.2331452369689941 0.98524904251098633 
-1.8781275749206543 -5.4044537544250488 1.9690737724304199 
-0.61207669973373413 -5.4796156883239746 2.3869962692260742 
0.55884253978729248 -5.4813203811645508 1.9322890043258667 
-2.3293654918670654 -4.2170333862304688 0.64769810438156128 
-2.2921082973480225 -3.9474296569824219 1.0042253732681274 
-1.9653255939483643 -3.5929744243621826 1.0766730308532715 
-1.9732139110565186 -3.5638039112091064 2.1389710903167725 
-4.7175908088684082 -4.9667859077453613 2.0395026206970215 
-4.2001934051513672 -5.2610740661621094 2.0099117755889893 
-4.3942680358886719 -4.9649825096130371 2.3845696449279785 
-3.8949894905090332 -5.1649832725524902 2.3419182300567627 
-3.8947291374206543 -4.9535713195800781 2.5541555881500244 
-2.8467962741851807 -5.3162045478820801 2.0514121055603027 
-2.5590360164642334 -5.2517719268798828 2.3481111526489258 
-2.7513573169708252 -4.9366798400878906 2.6976616382598877 
-4.753476619720459 -4.5487632751464844 2.072537899017334 
-4.2364583015441895 -4.1989264488220215 2.0098843574523926 
-4.4168581962585449 -4.5965867042541504 2.4183468818664551 
-4.2054119110107422 -4.3202481269836426 2.3221142292022705 
-3.9028477668762207 -4.6109418869018555 2.5995099544525146 
-2.9996297359466553 -4.0531401634216309 2.0113604068756104 
-3.0609705448150635 -4.2014164924621582 2.4377481937408447 
-2.4299395084381104 -3.9033005237579346 2.0065863132476807 
-2.642585277557373 -4.054436206817627 2.3470592498779297 
-3.1315703392028809 -4.5957083702087402 2.6944026947021484 
-2.5491375923156738 -4.2746939659118652 2.6861562728881836 
-2.4141545295715332 -4.5944170951843262 2.8710963726043701 
-1.4636478424072266 -5.4034914970397949 2.410771369934082 
-1.6953502893447876 -5.2348537445068359 2.8206620216369629 
-2.0726699829101562 -5.1624760627746582 2.6835322380065918 
-2.0599079132080078 -4.9348745346069336 2.9385511875152588 
-1.2842034101486206 -5.2383403778076172 3.2860963344573975 
-0.8213992714881897 -5.4167394638061523 3.1307737827301025 
-2.266139030456543 -3.9275393486022949 2.5290474891662598 
-2.2092933654785156 -4.2259907722473145 2.8862874507904053 
-1.8390623331069946 -3.6696407794952393 2.8541975021362305 
-1.9669846296310425 -4.0185365676879883 3.0104889869689941 
-1.6278448104858398 -4.9322233200073242 3.3200349807739258 
-1.3496365547180176 -5.0049676895141602 3.8443722724914551 
-0.79770225286483765 -5.3129487037658691 4.2035260200500488 
0.29733735322952271 -5.3899917602539062 4.3556833267211914 
-0.21057175099849701 -5.3557353019714355 4.7041325569152832 
-0.94327789545059204 -5.1451621055603027 4.7799844741821289 
-1.8325752019882202 -4.5886321067810059 3.2740879058837891 
-1.7609713077545166 -4.086359977722168 3.3599424362182617 
-1.5473142862319946 -4.610776424407959 3.7174577713012695 
-1.5859692096710205 -4.1254229545593262 3.7420392036437988 
-1.5948103666305542 -3.4617509841918945 3.474017858505249 
-1.3492311239242554 -4.5692739486694336 4.7773032188415527 
-1.4247027635574341 -3.0457677841186523 4.5582680702209473 
-1.3908954858779907 -3.6848025321960449 4.8400321006774902 
-1.0074206590652466 -4.9555907249450684 5.3113961219787598 
-0.60468006134033203 -5.1514129638671875 5.4624099731445312 
0.067701809108257294 -5.0467643737792969 6.4400234222412109 
-0.27116385102272034 -4.9925093650817871 6.4821114540100098 
-1.03624427318573 -4.606849193572998 5.8004341125488281 
-1.0790637731552124 -4.1433773040771484 5.9781088829040527 
-0.58556252717971802 -4.9129834175109863 6.2436838150024414 
-0.6692129373550415 -4.6172327995300293 6.6486396789550781 
-0.85905784368515015 -3.8121523857116699 6.6056156158447266 
-0.63121765851974487 -4.2383289337158203 7.0497560501098633 
-0.29915642738342285 -4.6349015235900879 7.1350078582763672 
0.066808469593524933 -4.7724733352661133 7.0884943008422852 
-0.61757582426071167 -3.6818664073944092 7.0437297821044922 
0.067360624670982361 -4.3975300788879395 7.4894094467163086 
-0.26898452639579773 -4.2577300071716309 7.4269967079162598 
-0.27992001175880432 -3.9062342643737793 7.44781494140625 
-0.28500807285308838 -3.4715244770050049 7.2258577346801758 
0.058155745267868042 -3.8013849258422852 7.5305285453796387 
1.4107158184051514 -5.1850757598876953 -0.12677706778049469 
0.98324429988861084 -5.4362392425537109 0.82321643829345703 
1.2265359163284302 -5.3400216102600098 0.2347005158662796 
1.7201159000396729 -4.9369902610778809 -0.10433487594127655 
1.8938421010971069 -5.1101970672607422 0.45852670073509216 
2.1544187068939209 -4.9432172775268555 0.48170077800750732 
1.9174978733062744 -4.595797061920166 -0.087062127888202667 
1.936149001121521 -4.2777271270751953 -0.15456613898277283 
1.9232316017150879 -3.7754905223846436 -0.041866578161716461 
2.1204392910003662 -4.6776533126831055 0.25616002082824707 
2.1473572254180908 -4.2410292625427246 0.3120192289352417 
1.9192482233047485 -3.4849758148193359 0.4356401264667511 
1.7153415679931641 -5.3719692230224609 1.167386531829834 
1.7136553525924683 -5.2781052589416504 0.67719948291778564 
2.3571393489837646 -5.2356863021850586 0.9997902512550354 
3.0852377414703369 -5.0736103057861328 1.0046510696411133 
2.8616917133331299 -4.9462299346923828 0.84298938512802124 
2.5769956111907959 -5.3427824974060059 1.6685459613800049 
3.1546878814697266 -5.2632102966308594 1.3274160623550415 
2.5425357818603516 -4.6028599739074707 0.63125073909759521 
2.4384334087371826 -4.2758793830871582 0.66159576177597046 
2.8167831897735596 -4.2605295181274414 0.98502451181411743 
2.1446418762207031 -3.9020969867706299 0.62254738807678223 
2.0793671607971191 -3.6543967723846436 1.0480760335922241 
2.442197322845459 -3.9693410396575928 1.0788320302963257 
2.1006581783294678 -3.5805602073669434 1.9242211580276489 
2.7762000560760498 -4.062004566192627 1.3310372829437256 
2.4649121761322021 -3.8563737869262695 1.8655999898910522 
3.0103015899658203 -4.0628852844238281 1.6406075954437256 
3.9892106056213379 -4.9361600875854492 1.0636260509490967 
4.3626337051391602 -5.2658910751342773 1.6850597858428955 
4.0827445983886719 -5.1852035522460938 1.3400882482528687 
4.5187397003173828 -4.9670042991638184 1.2906255722045898 
4.8343086242675781 -4.9594354629516602 1.6576012372970581 
3.4603257179260254 -4.5204105377197266 0.95163637399673462 
3.9831011295318604 -4.6202569007873535 1.0364538431167603 
3.2017462253570557 -4.1948494911193848 1.2537490129470825 
4.0396714210510254 -4.2629871368408203 1.3515983819961548 
4.3201608657836914 -4.1921873092651367 1.6609665155410767 
4.5350446701049805 -4.5348916053771973 1.2764118909835815 
4.8710417747497559 -4.5445470809936523 1.6397544145584106 
2.395965576171875 -5.3404836654663086 2.0458769798278809 
0.72803974151611328 -5.4173727035522461 3.0100412368774414 
1.1924293041229248 -5.3968443870544434 2.5170745849609375 
1.4856555461883545 -5.2921113967895508 2.8018100261688232 
2.5924124717712402 -5.2370848655700684 2.3397941589355469 
2.2469241619110107 -5.1298599243164062 2.6535632610321045 
1.6823757886886597 -5.0581207275390625 3.1564068794250488 
2.064544677734375 -4.8849015235900879 3.0227124691009521 
2.7621884346008301 -4.9434733390808105 2.6574459075927734 
2.0668597221374512 -3.6447172164916992 2.4994421005249023 
2.8769259452819824 -4.0385227203369141 2.0192344188690186 
2.6047823429107666 -4.0313639640808105 2.3813769817352295 
2.56392502784729 -4.229062557220459 2.6973333358764648 
2.1968717575073242 -4.5825824737548828 3.0407030582427979 
2.9790151119232178 -4.5995945930480957 2.701030969619751 
2.1110236644744873 -4.1082034111022949 3.0470743179321289 
1.8146070241928101 -3.5399227142333984 3.1123456954956055 
0.77524960041046143 -5.3084206581115723 4.5641207695007324 
1.2109383344650269 -5.2480373382568359 3.4823067188262939 
1.4826525449752808 -4.9989328384399414 3.6967973709106445 
1.0619320869445801 -5.2331819534301758 4.2760319709777832 
1.3960189819335938 -4.9247007369995117 4.316596508026123 
1.7891614437103271 -4.6988072395324707 3.3892862796783447 
1.8232083320617676 -4.0465044975280762 3.4283978939056396 
1.6305408477783203 -4.5995688438415527 3.7753820419311523 
1.6921632289886475 -4.2225337028503418 3.7271254062652588 
1.6777830123901367 -3.4512050151824951 3.7223048210144043 
1.5454996824264526 -3.8914382457733154 4.6355443000793457 
4.359959602355957 -5.2564105987548828 1.9846092462539673 
4.0935478210449219 -5.1261839866638184 2.3423140048980713 
4.0771121978759766 -4.9481043815612793 2.5092792510986328 
4.8314013481140137 -4.9547171592712402 2.0308032035827637 
4.4987025260925293 -4.9533143043518066 2.3642947673797607 
4.1071767807006836 -4.2873544692993164 2.3299083709716797 
3.1780319213867188 -4.2232451438903809 2.4151792526245117 
4.3355979919433594 -4.1857733726501465 2.0174388885498047 
4.0357499122619629 -4.6140103340148926 2.5612862110137939 
4.8722052574157715 -4.5556941032409668 2.0697803497314453 
4.5447373390197754 -4.5386190414428711 2.3922679424285889 
0.41216099262237549 -5.1456069946289062 5.8339781761169434 
1.1217976808547974 -4.9799365997314453 5.1923670768737793 
0.75326502323150635 -5.0110721588134766 5.9124951362609863 
1.3426880836486816 -4.6100516319274902 5.1187319755554199 
1.2426246404647827 -4.1292614936828613 5.7885785102844238 
1.0982110500335693 -4.6142139434814453 5.8859157562255859 
1.2414168119430542 -3.4384491443634033 5.7752442359924316 
0.41610780358314514 -4.9233889579772949 6.5930085182189941 
0.77417451143264771 -4.6307339668273926 6.6505823135375977 
0.80731290578842163 -4.2414641380310059 6.9535388946533203 
0.4342588484287262 -4.6294550895690918 7.1229405403137207 
0.7772642970085144 -3.9396345615386963 7.0215635299682617 
0.73427361249923706 -3.6184773445129395 6.9759984016418457 
0.38459727168083191 -4.2652754783630371 7.4243903160095215 
0.40268012881278992 -3.9274451732635498 7.4268088340759277 
0.41725391149520874 -3.4910767078399658 7.2104611396789551 
-1.583085298538208 -2.6555612087249756 0.27800649404525757 
-1.2682386636734009 -2.2577004432678223 -0.17608936131000519 
-0.51497381925582886 -1.8331338167190552 0.99256515502929688 
0.25686952471733093 -1.7798898220062256 1.1476857662200928 
-1.7805217504501343 -3.2353582382202148 1.3286228179931641 
-1.5786532163619995 -2.6288597583770752 1.1719355583190918 
-1.3426519632339478 -2.1732177734375 1.0271964073181152 
-1.3606809377670288 -2.130683422088623 2.3452415466308594 
-0.96588993072509766 -1.8649721145629883 1.7038518190383911 
-0.53607171773910522 -1.7176162004470825 2.1189029216766357 
0.2860838770866394 -1.6907303333282471 2.0182251930236816 
-1.6847132444381714 -3.1954085826873779 2.4965176582336426 
-1.5312865972518921 -2.5835280418395996 2.5443623065948486 
-1.5992451906204224 -3.1026172637939453 2.9720945358276367 
-1.3282772302627563 -2.1952457427978516 3.9561357498168945 
-1.0006121397018433 -1.8199658393859863 2.7913966178894043 
-0.55328094959259033 -1.7038064002990723 3.7184114456176758 
0.29275670647621155 -1.6642298698425293 3.3037643432617188 
-1.4232351779937744 -2.5702838897705078 4.1616663932800293 
-0.99958091974258423 -1.8579597473144531 3.8275489807128906 
-0.93784129619598389 -1.9575881958007812 4.4989328384399414 
-0.62067216634750366 -1.9157757759094238 4.7570881843566895 
0.60093265771865845 -1.7437148094177246 4.1567387580871582 
0.023751277476549149 -1.7958990335464478 4.5524892807006836 
-1.2073075771331787 -3.0353629589080811 5.4208049774169922 
-1.2614998817443848 -2.550518274307251 4.8939681053161621 
-1.0271154642105103 -2.1901252269744873 4.9252176284790039 
-0.95168387889862061 -3.0013589859008789 6.019221305847168 
-0.94816982746124268 -2.5631101131439209 5.5835833549499512 
-0.61591076850891113 -2.4435410499572754 5.7645597457885742 
-0.32049539685249329 -2.0431382656097412 5.202023983001709 
0.063064612448215485 -2.7654604911804199 6.4656963348388672 
0.38572677969932556 -2.1439158916473389 5.4055733680725098 
-0.59099715948104858 -3.1294894218444824 6.6486606597900391 
-0.28275600075721741 -2.8863086700439453 6.5806074142456055 
0.10075346380472183 -3.260906457901001 7.1267404556274414 
1.6581770181655884 -2.561100959777832 1.0118364095687866 
0.7346227765083313 -1.7652181386947632 1.5531527996063232 
1.0526453256607056 -1.8932656049728394 1.2661246061325073 
1.811801552772522 -3.105905294418335 1.4107789993286133 
1.4839949607849121 -2.1680967807769775 1.5148528814315796 
1.8565495014190674 -3.2217237949371338 2.0957159996032715 
1.7432916164398193 -3.0734035968780518 2.6453008651733398 
1.6094471216201782 -2.5591804981231689 3.2632343769073486 
1.4633134603500366 -2.1600551605224609 3.4856531620025635 
1.1432976722717285 -1.8334817886352539 2.7184557914733887 
0.73556673526763916 -1.7066777944564819 3.3049724102020264 
1.3725177049636841 -2.2554643154144287 4.4862031936645508 
1.531328558921814 -2.6897847652435303 4.4512600898742676 
1.099107027053833 -1.8845709562301636 4.0820598602294922 
1.3633167743682861 -2.5581963062286377 4.945854663848877 
1.1103674173355103 -2.1414380073547363 4.875800609588623 
1.2402551174163818 -3.049717903137207 5.6273207664489746 
1.075237512588501 -2.8463892936706543 5.8368101119995117 
0.76083505153656006 -2.4645977020263672 5.7798161506652832 
1.0956176519393921 -2.5427510738372803 5.4970664978027344 
0.74078816175460815 -1.9685561656951904 4.8811092376708984 
0.72491466999053955 -2.9086332321166992 6.3701043128967285 
0.79998010396957397 -3.2914824485778809 6.6665630340576172 
0.40944671630859375 -2.8474645614624023 6.5146331787109375 
3 0 1 2 
3 4 3 0 
3 3 5 1 
3 1 0 3 
3 6 2 1 
3 7 6 1 
3 7 1 5 
3 8 6 7 
3 9 0 2 
3 4 0 9 
3 4 9 10 
3 11 10 9 
3 13 9 2 
3 13 12 9 
3 9 12 11 
3 14 12 13 
3 15 2 6 
3 6 16 15 
3 8 17 16 
3 16 6 8 
3 13 2 15 
3 15 18 13 
3 18 15 16 
3 19 16 17 
3 19 18 16 
3 20 13 18 
3 18 21 20 
3 21 18 19 
3 22 3 4 
3 23 5 3 
3 23 3 22 
3 22 4 24 
3 7 5 23 
3 7 25 8 
3 23 26 7 
3 25 7 26 
3 27 22 24 
3 23 22 27 
3 27 28 23 
3 23 29 26 
3 25 26 29 
3 29 23 28 
3 10 11 30 
3 4 10 30 
3 24 4 30 
3 30 11 32 
3 11 31 32 
3 17 8 25 
3 17 33 19 
3 33 35 34 
3 34 19 33 
3 36 27 24 
3 24 30 36 
3 36 30 32 
3 36 37 27 
3 28 27 37 
3 38 37 36 
3 39 28 37 
3 37 38 39 
3 36 32 38 
3 40 38 32 
3 39 38 41 
3 43 41 38 
3 38 40 43 
3 43 40 42 
3 44 41 43 
3 45 17 25 
3 46 45 25 
3 46 25 29 
3 33 17 45 
3 46 47 45 
3 48 29 28 
3 29 48 46 
3 48 28 39 
3 48 39 49 
3 46 48 49 
3 46 49 47 
3 33 45 47 
3 50 35 33 
3 50 33 47 
3 39 41 49 
3 51 49 41 
3 50 47 49 
3 50 49 51 
3 50 52 35 
3 44 53 51 
3 51 41 44 
3 53 54 50 
3 50 51 53 
3 50 54 52 
3 57 56 42 
3 44 43 56 
3 43 42 56 
3 56 55 44 
3 58 44 55 
3 58 55 59 
3 55 56 59 
3 60 53 44 
3 61 53 60 
3 53 61 54 
3 54 62 52 
3 60 44 58 
3 63 61 60 
3 63 64 61 
3 65 64 63 
3 65 66 64 
3 61 64 54 
3 67 54 64 
3 67 68 62 
3 62 54 67 
3 66 67 64 
3 59 56 69 
3 69 56 57 
3 71 58 59 
3 70 72 71 
3 71 59 70 
3 70 59 69 
3 69 57 73 
3 76 60 58 
3 77 63 60 
3 77 60 76 
3 65 63 77 
3 65 78 66 
3 77 78 65 
3 76 58 71 
3 76 74 77 
3 71 79 76 
3 74 76 79 
3 75 77 74 
3 80 78 77 
3 80 77 75 
3 72 70 82 
3 82 81 71 
3 71 72 82 
3 83 80 75 
3 79 71 81 
3 79 84 74 
3 74 84 75 
3 83 75 84 
3 85 81 86 
3 82 70 87 
3 87 70 69 
3 87 69 88 
3 88 69 73 
3 89 82 87 
3 89 86 81 
3 81 82 89 
3 79 81 85 
3 90 83 84 
3 91 84 79 
3 85 92 79 
3 91 79 92 
3 91 93 84 
3 90 84 93 
3 12 14 94 
3 95 14 13 
3 11 12 31 
3 31 12 94 
3 31 94 96 
3 95 97 94 
3 94 14 95 
3 97 98 94 
3 99 96 94 
3 94 98 99 
3 95 13 20 
3 34 21 19 
3 100 97 95 
3 100 95 20 
3 100 20 21 
3 34 101 21 
3 100 102 97 
3 102 100 21 
3 103 102 21 
3 103 21 101 
3 98 97 104 
3 99 98 105 
3 105 98 104 
3 105 104 106 
3 102 104 97 
3 107 106 104 
3 104 102 107 
3 103 107 102 
3 108 32 31 
3 96 109 31 
3 109 108 31 
3 99 109 96 
3 109 99 110 
3 112 34 35 
3 111 34 112 
3 111 101 34 
3 103 101 111 
3 40 32 108 
3 40 108 113 
3 108 109 113 
3 40 114 42 
3 113 114 40 
3 115 114 113 
3 42 114 116 
3 114 115 116 
3 117 115 113 
3 118 113 109 
3 118 109 110 
3 118 110 119 
3 117 113 118 
3 117 118 120 
3 118 119 120 
3 35 121 112 
3 115 123 122 
3 124 121 35 
3 124 35 52 
3 121 122 123 
3 122 121 124 
3 116 115 122 
3 116 122 125 
3 126 124 52 
3 125 122 124 
3 125 124 126 
3 123 115 117 
3 127 123 117 
3 121 123 127 
3 128 111 112 
3 128 112 121 
3 129 103 111 
3 128 130 129 
3 129 111 128 
3 117 120 127 
3 121 127 128 
3 127 120 130 
3 128 127 130 
3 110 99 105 
3 110 105 131 
3 131 105 106 
3 131 106 132 
3 106 107 133 
3 133 107 103 
3 133 132 106 
3 110 131 119 
3 132 119 131 
3 119 132 120 
3 133 103 129 
3 132 133 130 
3 130 133 129 
3 130 120 132 
3 57 42 134 
3 134 42 116 
3 135 134 116 
3 135 136 134 
3 57 134 137 
3 137 134 136 
3 138 136 135 
3 135 116 125 
3 135 125 139 
3 140 139 125 
3 125 126 140 
3 62 141 126 
3 126 52 62 
3 140 126 141 
3 138 135 139 
3 139 140 142 
3 138 139 143 
3 144 143 139 
3 139 142 144 
3 141 145 140 
3 141 62 68 
3 145 141 146 
3 142 140 145 
3 142 145 146 
3 137 73 57 
3 137 136 147 
3 136 138 148 
3 147 136 148 
3 148 138 149 
3 144 142 150 
3 146 151 142 
3 150 142 151 
3 149 138 143 
3 143 144 152 
3 153 152 144 
3 144 150 153 
3 154 147 148 
3 73 137 155 
3 156 155 137 
3 137 147 156 
3 156 147 154 
3 154 148 149 
3 149 143 157 
3 152 157 143 
3 157 152 158 
3 158 152 153 
3 158 153 159 
3 154 149 160 
3 156 154 161 
3 160 161 154 
3 158 159 162 
3 160 149 157 
3 160 157 163 
3 163 157 158 
3 163 158 162 
3 165 66 78 
3 165 67 66 
3 80 166 78 
3 78 166 165 
3 167 67 165 
3 68 67 167 
3 167 168 68 
3 169 80 83 
3 83 170 169 
3 166 80 169 
3 169 171 166 
3 166 171 167 
3 167 165 166 
3 172 173 168 
3 168 167 172 
3 171 169 170 
3 174 171 170 
3 174 172 167 
3 167 171 174 
3 170 83 90 
3 175 170 90 
3 175 176 170 
3 175 177 176 
3 176 174 170 
3 176 179 174 
3 179 180 172 
3 172 174 179 
3 178 172 180 
3 181 141 68 
3 146 141 181 
3 182 146 181 
3 182 151 146 
3 168 181 68 
3 183 182 181 
3 183 181 168 
3 182 184 151 
3 184 150 151 
3 184 182 183 
3 150 184 185 
3 184 183 186 
3 185 184 186 
3 187 185 186 
3 173 183 168 
3 186 183 173 
3 186 173 188 
3 187 186 188 
3 153 150 185 
3 153 185 159 
3 159 185 187 
3 173 172 178 
3 187 188 189 
3 188 173 190 
3 190 191 188 
3 192 189 188 
3 192 188 191 
3 159 187 193 
3 193 187 189 
3 162 159 164 
3 194 164 159 
3 159 193 194 
3 189 194 193 
3 194 189 195 
3 195 189 192 
3 190 173 178 
3 197 199 198 
3 200 196 197 
3 200 197 198 
3 199 202 201 
3 203 198 199 
3 200 203 204 
3 203 200 198 
3 203 199 201 
3 206 207 199 
3 199 197 206 
3 206 208 207 
3 197 196 205 
3 197 205 206 
3 205 209 206 
3 206 209 208 
3 207 210 202 
3 202 199 207 
3 207 211 210 
3 207 208 212 
3 207 212 211 
3 209 213 212 
3 212 208 209 
3 214 211 212 
3 214 212 213 
3 213 215 214 
3 86 216 85 
3 219 218 216 
3 86 219 216 
3 219 86 217 
3 88 73 220 
3 89 87 88 
3 216 92 85 
3 221 90 93 
3 222 223 218 
3 224 223 222 
3 216 223 92 
3 223 224 91 
3 91 92 223 
3 216 218 223 
3 93 91 224 
3 224 225 93 
3 221 93 225 
3 202 218 219 
3 226 201 202 
3 226 202 219 
3 217 226 219 
3 204 203 226 
3 201 226 203 
3 204 226 217 
3 217 86 89 
3 217 89 88 
3 204 217 88 
3 227 204 88 
3 228 227 88 
3 220 228 88 
3 202 210 222 
3 218 202 222 
3 230 222 210 
3 222 230 224 
3 210 211 230 
3 230 225 224 
3 211 231 230 
3 225 230 231 
3 232 225 231 
3 214 215 231 
3 231 211 214 
3 232 231 215 
3 215 233 232 
3 234 196 200 
3 234 200 235 
3 235 236 234 
3 237 236 235 
3 236 237 238 
3 200 204 235 
3 239 235 204 
3 237 235 239 
3 237 239 240 
3 240 241 238 
3 240 238 237 
3 234 242 205 
3 205 196 234 
3 243 209 205 
3 243 205 242 
3 236 244 242 
3 242 234 236 
3 242 245 243 
3 244 245 242 
3 244 236 238 
3 244 238 246 
3 245 244 246 
3 243 247 213 
3 213 209 243 
3 248 247 243 
3 248 243 245 
3 247 249 215 
3 215 213 247 
3 250 249 247 
3 250 247 248 
3 246 238 251 
3 248 245 246 
3 246 251 248 
3 241 251 238 
3 252 248 251 
3 241 253 251 
3 251 253 252 
3 248 252 250 
3 227 239 204 
3 227 240 239 
3 254 240 227 
3 227 228 254 
3 254 255 240 
3 256 241 240 
3 256 240 255 
3 241 256 257 
3 254 258 255 
3 255 257 256 
3 228 220 229 
3 259 258 254 
3 254 228 259 
3 233 215 249 
3 250 260 249 
3 233 249 260 
3 253 241 257 
3 253 261 252 
3 252 260 250 
3 260 262 233 
3 252 261 260 
3 261 263 260 
3 260 263 262 
3 255 264 257 
3 258 264 255 
3 265 264 258 
3 266 258 259 
3 265 258 266 
3 228 229 267 
3 259 228 268 
3 267 268 228 
3 265 266 269 
3 268 266 259 
3 257 270 253 
3 261 253 270 
3 270 257 264 
3 271 261 270 
3 264 272 270 
3 272 264 265 
3 271 270 272 
3 272 273 271 
3 263 261 271 
3 271 274 262 
3 262 263 271 
3 271 273 274 
3 265 275 272 
3 275 273 272 
3 273 276 274 
3 277 273 275 
3 276 273 277 
3 278 265 269 
3 269 266 279 
3 279 266 268 
3 279 278 269 
3 279 268 281 
3 280 281 268 
3 278 275 265 
3 282 275 278 
3 282 283 275 
3 277 275 283 
3 284 278 279 
3 281 284 279 
3 282 278 284 
3 284 285 282 
3 283 282 285 
3 287 283 285 
3 281 285 284 
3 281 288 285 
3 289 288 281 
3 281 280 289 
3 287 285 288 
3 286 283 287 
3 287 290 286 
3 289 291 288 
3 288 292 287 
3 291 292 288 
3 293 290 287 
3 292 293 287 
3 290 293 294 
3 295 294 293 
3 291 295 292 
3 295 293 292 
3 155 220 73 
3 161 160 296 
3 155 156 297 
3 156 161 298 
3 298 161 296 
3 298 297 156 
3 296 160 299 
3 300 298 296 
3 296 299 300 
3 300 299 301 
3 302 299 160 
3 160 163 302 
3 303 302 163 
3 163 162 303 
3 162 164 304 
3 301 299 302 
3 305 301 302 
3 303 306 305 
3 303 305 302 
3 303 162 304 
3 306 303 304 
3 307 306 304 
3 220 155 229 
3 297 229 155 
3 297 298 308 
3 309 298 300 
3 308 298 309 
3 308 309 310 
3 300 310 309 
3 310 300 301 
3 310 301 312 
3 310 312 311 
3 313 229 297 
3 297 308 313 
3 308 310 314 
3 311 314 310 
3 308 314 313 
3 301 305 315 
3 306 316 315 
3 315 305 306 
3 301 315 312 
3 316 317 315 
3 318 306 307 
3 319 318 307 
3 318 316 306 
3 318 320 316 
3 317 316 320 
3 322 317 320 
3 320 318 319 
3 323 324 322 
3 322 320 323 
3 323 320 319 
3 323 319 321 
3 325 311 312 
3 311 325 314 
3 313 314 326 
3 327 314 325 
3 327 326 314 
3 328 327 325 
3 327 328 326 
3 326 328 329 
3 330 312 315 
3 331 325 312 
3 331 312 330 
3 330 315 317 
3 317 332 330 
3 330 332 333 
3 331 330 333 
3 332 317 322 
3 324 332 322 
3 334 333 332 
3 334 332 324 
3 335 328 325 
3 335 325 331 
3 335 331 333 
3 328 335 336 
3 336 329 328 
3 333 334 335 
3 336 335 334 
3 338 229 337 
3 338 337 339 
3 337 229 313 
3 339 337 341 
3 341 340 339 
3 340 341 342 
3 343 340 342 
3 344 343 342 
3 345 342 341 
3 345 344 342 
3 324 323 347 
3 346 348 323 
3 323 321 346 
3 348 347 323 
3 350 344 345 
3 351 350 345 
3 350 349 352 
3 349 350 351 
3 353 352 346 
3 346 349 348 
3 346 352 349 
3 267 229 338 
3 267 338 354 
3 338 339 355 
3 339 340 355 
3 355 354 338 
3 354 355 357 
3 357 355 356 
3 357 356 358 
3 355 340 343 
3 355 343 356 
3 359 343 344 
3 359 344 350 
3 360 359 350 
3 350 352 360 
3 356 343 359 
3 361 356 359 
3 361 359 362 
3 360 362 359 
3 360 352 353 
3 362 360 363 
3 360 353 363 
3 361 358 356 
3 361 362 364 
3 362 363 364 
3 337 313 365 
3 365 313 326 
3 366 341 337 
3 337 365 366 
3 341 366 367 
3 367 345 341 
3 365 326 329 
3 365 329 368 
3 366 365 369 
3 365 368 369 
3 369 367 366 
3 348 371 347 
3 372 334 324 
3 372 324 347 
3 371 370 372 
3 372 347 371 
3 373 351 345 
3 349 351 371 
3 371 351 373 
3 345 367 373 
3 371 373 370 
3 348 349 371 
3 372 374 336 
3 336 334 372 
3 369 368 374 
3 369 374 375 
3 375 372 370 
3 374 372 375 
3 368 329 336 
3 368 336 374 
3 375 373 367 
3 367 369 375 
3 375 370 373 
3 268 267 376 
3 267 354 376 
3 354 357 377 
3 357 358 377 
3 376 280 268 
3 376 354 378 
3 378 354 377 
3 379 377 358 
3 378 377 381 
3 381 377 379 
3 380 381 379 
3 380 364 382 
3 379 358 361 
3 364 379 361 
3 364 380 379 
3 280 376 383 
3 376 378 383 
3 384 383 378 
3 380 385 381 
3 384 378 381 
3 384 381 385 
3 289 280 383 
3 289 383 386 
3 383 384 386 
3 386 384 385 
3 385 380 387 
3 387 380 382 
3 387 382 388 
3 386 291 289 
3 389 291 386 
3 385 389 386 
3 385 387 390 
3 390 389 385 
3 295 390 391 
3 387 388 391 
3 391 390 387 
3 389 390 295 
3 295 291 389 
3 221 175 90 
3 221 392 175 
3 177 175 392 
3 177 393 176 
3 393 177 392 
3 393 179 176 
3 394 395 178 
3 178 180 394 
3 396 221 225 
3 396 225 232 
3 397 392 221 
3 397 221 396 
3 398 393 392 
3 396 232 233 
3 398 392 397 
3 399 398 397 
3 179 393 398 
3 179 394 180 
3 398 400 179 
3 400 394 179 
3 400 401 394 
3 401 402 395 
3 395 394 401 
3 396 403 397 
3 233 403 396 
3 404 397 403 
3 399 397 404 
3 403 233 262 
3 262 405 403 
3 404 403 405 
3 404 406 399 
3 407 400 398 
3 407 398 399 
3 401 400 407 
3 407 408 401 
3 401 409 402 
3 409 401 408 
3 262 274 405 
3 274 410 404 
3 404 405 274 
3 406 404 410 
3 410 274 276 
3 411 407 399 
3 411 399 406 
3 408 407 411 
3 406 412 411 
3 412 413 408 
3 408 411 412 
3 414 409 408 
3 415 408 413 
3 415 414 408 
3 276 277 416 
3 276 417 410 
3 417 406 410 
3 276 416 417 
3 418 406 417 
3 416 277 283 
3 416 420 417 
3 417 420 418 
3 421 418 420 
3 420 416 419 
3 422 423 424 
3 412 406 418 
3 413 412 418 
3 413 422 415 
3 413 418 421 
3 422 413 421 
3 286 419 416 
3 416 283 286 
3 421 420 419 
3 419 425 421 
3 422 421 426 
3 423 422 426 
3 425 426 421 
3 290 425 419 
3 419 286 290 
3 294 425 290 
3 425 294 426 
3 427 423 426 
3 426 294 427 
3 427 294 295 
3 194 304 164 
3 307 304 194 
3 428 307 194 
3 194 195 428 
3 428 195 192 
3 429 190 178 
3 429 178 395 
3 430 191 190 
3 430 190 429 
3 192 191 430 
3 431 319 307 
3 428 192 432 
3 433 321 319 
3 319 431 433 
3 431 307 428 
3 432 192 430 
3 429 395 402 
3 433 346 321 
3 433 431 434 
3 434 431 428 
3 434 428 435 
3 435 428 432 
3 346 433 434 
3 353 346 434 
3 435 432 436 
3 432 430 437 
3 437 430 429 
3 438 429 402 
3 438 402 409 
3 437 436 432 
3 437 429 438 
3 363 353 434 
3 363 434 440 
3 440 434 435 
3 364 363 440 
3 440 435 436 
3 440 436 439 
3 436 437 441 
3 438 441 437 
3 438 409 414 
3 441 439 436 
3 441 438 414 
3 442 439 443 
3 382 440 444 
3 444 440 442 
3 444 442 447 
3 447 443 446 
3 442 443 447 
3 445 447 446 
3 444 447 445 
3 382 364 440 
3 440 439 442 
3 448 414 415 
3 424 415 422 
3 448 415 424 
3 443 441 448 
3 439 441 443 
3 414 448 441 
3 424 446 448 
3 448 446 443 
3 382 444 450 
3 450 444 445 
3 450 445 449 
3 423 451 424 
3 424 451 446 
3 451 449 446 
3 446 449 445 
3 450 449 451 
3 388 450 391 
3 427 391 451 
3 427 451 423 
3 451 391 450 
3 388 382 450 
3 427 295 391 
