ply
format ascii 1.0
comment VTK generated PLY File
obj_info vtkPolyData points and polygons: vtk4.0
element vertex 502
property float x
property float y
property float z
element face 1000
property list uchar int vertex_indices
end_header
-1.9441711902618408 -11.903055191040039 -1.0508482456207275 
-2.2642340660095215 -12.074638366699219 0.38238024711608887 
-1.8510613441467285 -12.538201332092285 0.36772051453590393 
-2.4343564510345459 -11.414189338684082 -0.53414946794509888 
-1.7727309465408325 -12.530665397644043 -0.41133475303649902 
-0.12323477864265442 -12.000979423522949 0.14646677672863007 
-1.4405527114868164 -11.439175605773926 -1.4911906719207764 
-1.0123070478439331 -11.187515258789062 -1.4761816263198853 
-0.81409299373626709 -12.142191886901855 -1.040867805480957 
-0.55668580532073975 -11.204695701599121 -1.1746999025344849 
-0.28667086362838745 -12.04241943359375 -0.45396316051483154 
-1.2508151531219482 -12.611110687255859 0.75060653686523438 
-0.49862208962440491 -12.566830635070801 -0.03713129460811615 
-0.054454326629638672 -7.2882447242736816 -3.4019331932067871 
-0.90221297740936279 -5.821197509765625 -3.3133130073547363 
0.21928432583808899 -6.3988018035888672 -3.4786007404327393 
0.064664483070373535 -5.5559158325195312 -3.3904941082000732 
-1.5599619150161743 -8.2657661437988281 -2.4981918334960938 
-2.3659834861755371 -8.2517786026000977 -1.9844127893447876 
0.010583450086414814 -9.5270709991455078 -1.1420321464538574 
0.3932536244392395 -8.6624383926391602 -2.5334358215332031 
-0.7856212854385376 -8.0402069091796875 -2.9469351768493652 
-0.63105487823486328 -8.7144412994384766 -2.3878614902496338 
0.070010505616664886 -8.0194883346557617 -3.0968668460845947 
-0.18846337497234344 -9.2763290405273438 -1.6971731185913086 
-2.7105906009674072 -10.742136001586914 0.21246658265590668 
-2.8628654479980469 -9.554443359375 0.17196907103061676 
-0.030555503442883492 -9.8170814514160156 0.012911172583699226 
0.043884947896003723 -10.863677024841309 0.12963707745075226 
-2.3968050479888916 -8.9268331527709961 -0.97343695163726807 
-2.7659428119659424 -8.6529932022094727 0.57392430305480957 
-2.7259678840637207 -8.6739234924316406 -0.38087627291679382 
0.14990486204624176 -9.805363655090332 0.074656404554843903 
-3.1294524669647217 -7.7895917892456055 -1.4697339534759521 
-3.4940931797027588 -7.8312273025512695 -0.057404320687055588 
-3.264376163482666 -6.4948081970214844 -1.7371979951858521 
-3.4823606014251709 -7.0935349464416504 -1.3068194389343262 
-3.8069634437561035 -6.9355764389038086 0.3078143298625946 
-3.7546513080596924 -7.0737247467041016 -0.43551388382911682 
-3.7509915828704834 -5.8231110572814941 -0.84722453355789185 
-3.5647728443145752 -5.0168857574462891 -0.82337707281112671 
-3.1519081592559814 -5.4199914932250977 -1.6589424610137939 
-4.0013728141784668 -5.9588379859924316 0.091276824474334717 
-3.7218325138092041 -4.6804666519165039 -0.17088229954242706 
-3.8564207553863525 -4.9258184432983398 0.28991517424583435 
0.97710084915161133 -7.412388801574707 -3.2387063503265381 
-1.8788529634475708 -5.2286891937255859 -2.7422654628753662 
-2.6121385097503662 -5.4041876792907715 -2.2432694435119629 
-0.87930601835250854 -4.838526725769043 -3.0070581436157227 
0.095482908189296722 -4.8501477241516113 -3.1614100933074951 
0.50117045640945435 -11.790522575378418 -0.78706204891204834 
1.2234034538269043 -11.521306037902832 -1.4338734149932861 
1.778450608253479 -11.864066123962402 -1.2951697111129761 
0.23206073045730591 -11.830039024353027 -0.018814489245414734 
1.5819735527038574 -12.610949516296387 -0.40345582365989685 
0.32000252604484558 -11.23106861114502 -0.61818689107894897 
0.50639086961746216 -12.457618713378906 0.34867432713508606 
0.65634399652481079 -12.575714111328125 -0.088288016617298126 
1.9715718030929565 -12.555898666381836 0.31564229726791382 
2.2302787303924561 -12.103061676025391 -0.6727103590965271 
2.6345579624176025 -11.257438659667969 -0.46510520577430725 
2.3651454448699951 -12.131839752197266 0.43790391087532043 
1.1461125612258911 -6.4672679901123047 -3.3114705085754395 
1.0795773267745972 -5.5797638893127441 -3.2519326210021973 
0.87835383415222168 -8.1339759826660156 -2.8953661918640137 
1.8262796401977539 -8.139653205871582 -2.509401798248291 
1.7116153240203857 -9.346196174621582 -1.4411803483963013 
2.4246790409088135 -8.534642219543457 -1.7481033802032471 
0.09971984475851059 -10.837135314941406 0.13316769897937775 
2.8218369483947754 -10.894252777099609 0.20564866065979004 
3.0104377269744873 -9.5439958572387695 0.1682279109954834 
2.9483606815338135 -8.426426887512207 -1.0880639553070068 
2.466163158416748 -8.9613304138183594 -1.0752403736114502 
2.9406912326812744 -8.5967588424682617 -0.1731908917427063 
1.0940972566604614 -4.8470783233642578 -2.9976568222045898 
2.0261571407318115 -5.2368049621582031 -2.77996826171875 
3.4244997501373291 -6.3557147979736328 -1.8210963010787964 
3.4321877956390381 -5.3596181869506836 -1.6698395013809204 
2.7404530048370361 -5.0500593185424805 -2.1927156448364258 
3.6259307861328125 -7.8427152633666992 0.010654720477759838 
3.4747319221496582 -7.6489176750183105 -1.1865222454071045 
3.8484158515930176 -6.1584806442260742 -1.1963814496994019 
3.2324848175048828 -7.6215291023254395 -1.6731574535369873 
3.6351194381713867 -4.9424209594726562 -1.1335968971252441 
3.9086384773254395 -7.2336153984069824 -0.17550899088382721 
4.1145415306091309 -6.3612637519836426 0.060919545590877533 
4.1012363433837891 -5.3436570167541504 0.25163304805755615 
4.0604472160339355 -5.3293313980102539 -0.36209195852279663 
-7.2632107734680176 -1.5581915378570557 -0.82121086120605469 
-8.0575370788574219 -1.5673849582672119 -4.5956716348882765e-05 
-6.9970970153808594 -1.5064609050750732 0.38874781131744385 
-10.709128379821777 -0.90930873155593872 -0.45218545198440552 
-10.672740936279297 -0.67638558149337769 -0.72187346220016479 
-10.788981437683105 -0.49535736441612244 0.023964148014783859 
-10.777058601379395 -0.82521134614944458 0.15069878101348877 
-9.8288059234619141 -0.70509713888168335 -0.043345183134078979 
-9.8672771453857422 -0.46317896246910095 -0.12689527869224548 
-9.7015495300292969 -0.4687173068523407 -0.57684230804443359 
-10.829644203186035 -0.53279101848602295 -0.49115005135536194 
-9.2044811248779297 -1.2509344816207886 -0.1840832382440567 
-9.8018016815185547 -0.27204856276512146 0.22183394432067871 
-9.330322265625 0.15361768007278442 -0.50900822877883911 
-9.2940559387207031 0.31281736493110657 0.47412863373756409 
-6.4480829238891602 -0.75324469804763794 -1.5903533697128296 
-6.5979108810424805 -1.2744413614273071 -1.2515929937362671 
-7.5725517272949219 -1.2673219442367554 -1.3099129199981689 
-6.7860054969787598 0.22305023670196533 -1.4135951995849609 
-6.7206230163574219 -0.42926397919654846 -1.666018009185791 
-8.6633462905883789 0.63844364881515503 0.19551530480384827 
-6.7644119262695312 0.62856262922286987 -0.9485129714012146 
-7.8688883781433105 0.80704665184020996 0.057672381401062012 
-6.6002993583679199 0.85411232709884644 -0.17194493114948273 
-2.8789641857147217 -2.7808022499084473 -0.61307060718536377 
-3.1131079196929932 -2.89892578125 0.064366944134235382 
-4.8632903099060059 -1.2253358364105225 -0.61705511808395386 
0.096670128405094147 -3.0623733997344971 -2.2763147354125977 
-1.3742502927780151 -1.9791573286056519 -1.7232768535614014 
0.064807727932929993 -1.7126010656356812 -2.0887537002563477 
-0.6517377495765686 -2.0386912822723389 -2.019465446472168 
-0.70294427871704102 -0.39741799235343933 -1.8727380037307739 
0.0012001215945929289 -0.3198750913143158 -1.9789824485778809 
-2.6166865825653076 -1.1693370342254639 -0.53679388761520386 
-2.1586382389068604 -1.7500789165496826 -1.1760884523391724 
-2.7803719043731689 -1.2515158653259277 0.23683486878871918 
-5.3033318519592285 -1.1942013502120972 0.18187671899795532 
-4.887718677520752 -1.0921189785003662 -1.0550071001052856 
-2.399306058883667 -0.71074545383453369 -0.79330098628997803 
-4.1877446174621582 -0.86585140228271484 -1.1876052618026733 
-2.987555980682373 -0.27522596716880798 -0.79577827453613281 
-4.1453275680541992 -1.1387802362442017 0.12895500659942627 
-3.0585935115814209 0.25722557306289673 -0.044664062559604645 
-3.1526379585266113 0.099015489220619202 -0.45757940411567688 
-4.6841964721679688 0.62055718898773193 -0.077821627259254456 
0.36543762683868408 0.65032416582107544 -1.5447468757629395 
-1.7880765199661255 0.70733779668807983 -0.098450690507888794 
-2.1682898998260498 0.24537542462348938 0.37684756517410278 
-2.0773937702178955 0.29997381567955017 0.022256476804614067 
-0.33257898688316345 0.99359673261642456 -1.2270938158035278 
-1.035071849822998 2.0772380828857422 -0.69234168529510498 
0.38022097945213318 1.5613130331039429 -1.0899401903152466 
0.45141148567199707 1.2674797773361206 -0.75648128986358643 
-0.37291204929351807 1.250819206237793 -0.71516978740692139 
-0.44187644124031067 1.757107138633728 -1.1064136028289795 
0.084272816777229309 1.8821049928665161 -1.210620641708374 
-0.9879307746887207 1.2097228765487671 0.0048125595785677433 
-1.7587165832519531 0.79202038049697876 0.68682938814163208 
-1.2903971672058105 2.1171097755432129 -0.046109508723020554 
-1.2717701196670532 1.576985239982605 -0.095848038792610168 
-0.40059176087379456 2.7585344314575195 0.022312985733151436 
-0.13329696655273438 2.3524696826934814 -1.0004127025604248 
-0.96940362453460693 2.5187585353851318 0.093408152461051941 
0.68090927600860596 2.6202948093414307 -0.47209545969963074 
-0.34697633981704712 2.6021618843078613 -0.58498650789260864 
1.4807515144348145 -0.60533905029296875 -1.6344789266586304 
0.8019794225692749 -0.62582272291183472 -1.9278465509414673 
0.74898135662078857 -2.2477807998657227 -2.0307745933532715 
1.4566915035247803 -2.462174654006958 -1.7760384082794189 
3.1754610538482666 -2.6558177471160889 0.085156328976154327 
3.6453323364257812 -4.1181211471557617 -0.41445457935333252 
2.0697915554046631 -2.2687232494354248 -1.37467360496521 
2.0386238098144531 -0.68416851758956909 -1.2596174478530884 
2.7450120449066162 -2.0466763973236084 -0.74103766679763794 
2.8137214183807373 -1.2235006093978882 -0.3507252037525177 
2.6261312961578369 -0.95055675506591797 -0.75441575050354004 
3.8257589340209961 -4.327425479888916 0.28114345669746399 
5.4664778709411621 -1.2859553098678589 -0.54872655868530273 
7.0422725677490234 -1.5622459650039673 -0.42821565270423889 
7.0151081085205078 -1.4356582164764404 0.50024449825286865 
4.357548713684082 -1.2144222259521484 -0.30198222398757935 
3.2797894477844238 0.28192812204360962 -0.31443697214126587 
4.4034953117370605 -1.103750467300415 -0.89249765872955322 
2.6124656200408936 -0.59332585334777832 -0.82782065868377686 
5.0831565856933594 -0.79824644327163696 -1.3857719898223877 
2.4386990070343018 -0.28959503769874573 -0.69792258739471436 
2.9905579090118408 -1.251457691192627 0.084886550903320312 
1.4830062389373779 1.6616740226745605 0.3205268383026123 
0.88956689834594727 2.1284291744232178 -0.91547811031341553 
1.0816671848297119 1.2052500247955322 -0.1657242625951767 
1.8502559661865234 0.84118914604187012 0.076588645577430725 
1.3234800100326538 1.6461523771286011 -0.48241472244262695 
3.0788915157318115 0.25057882070541382 0.36352357268333435 
2.2655038833618164 0.13908684253692627 -0.45344206690788269 
2.2300019264221191 0.33862456679344177 0.16439937055110931 
5.5005269050598145 -1.1842596530914307 0.28367704153060913 
6.2171940803527832 0.093080304563045502 -1.4972403049468994 
7.1668977737426758 -0.83201229572296143 -1.5764148235321045 
7.4688973426818848 -1.4979789257049561 -1.0210007429122925 
6.7451872825622559 -1.1422116756439209 -1.3770129680633545 
6.5033860206604004 -0.29107251763343811 -1.6294691562652588 
7.8971972465515137 -0.60495227575302124 -1.542563796043396 
7.7214198112487793 0.098245784640312195 -1.3985849618911743 
4.6684861183166504 0.599753737449646 -0.06399257481098175 
7.0002202987670898 0.82675307989120483 0.057111173868179321 
6.2167544364929199 0.6149822473526001 -1.0266903638839722 
7.7232351303100586 0.538959801197052 -0.94769191741943359 
7.4710497856140137 0.80267739295959473 -0.31946364045143127 
7.7669591903686523 -1.5257147550582886 0.36476349830627441 
8.4535284042358398 -1.5387643575668335 -0.51421630382537842 
9.0122947692871094 -1.3773263692855835 -0.04404134675860405 
9.4884366989135742 -1.0910863876342773 -0.56668692827224731 
9.9372444152832031 -0.70362091064453125 -0.067487761378288269 
10.794882774353027 -0.67127823829650879 -0.71966385841369629 
9.7565507888793945 -0.82233726978302002 -0.52858227491378784 
10.860777854919434 -0.90323829650878906 -0.52224886417388916 
9.948908805847168 -0.74073225259780884 0.11508072167634964 
10.014119148254395 -0.46722719073295593 -0.11714541912078857 
9.4804983139038086 0.16539956629276276 -0.44907620549201965 
9.8548164367675781 -0.49645441770553589 -0.62426888942718506 
10.918667793273926 -0.53852272033691406 -0.41141808032989502 
9.9308938980102539 -0.25955256819725037 0.17614178359508514 
10.96006965637207 -0.53050464391708374 0.0091038793325424194 
8.496612548828125 0.66403472423553467 0.62798899412155151 
8.7774524688720703 0.64075404405593872 0.065962545573711395 
9.4161043167114258 0.32640284299850464 0.59430736303329468 
0.71581363677978516 2.7160956859588623 0.28375014662742615 
1.3467360734939575 2.2843174934387207 -0.054741974920034409 
-2.0447738170623779 -11.840244293212891 1.2154309749603271 
-1.4459491968154907 -12.223817825317383 1.4027807712554932 
-0.36377358436584473 -12.16937255859375 0.82484710216522217 
-0.98987525701522827 -11.958199501037598 1.4694348573684692 
-2.9496045112609863 -7.9396038055419922 1.5753380060195923 
0.062921792268753052 -9.2166719436645508 1.9390097856521606 
0.3071848452091217 -9.7070016860961914 0.82994532585144043 
-1.6479690074920654 -8.0260095596313477 2.6371533870697021 
-2.3590798377990723 -7.974968433380127 2.2362911701202393 
-0.22721566259860992 -8.5600252151489258 2.6127479076385498 
0.086632341146469116 -7.7680172920227051 3.1828896999359131 
-3.5240309238433838 -7.2821083068847656 1.1216238737106323 
-3.2080962657928467 -7.1611647605895996 1.7767318487167358 
-3.6639878749847412 -4.5319738388061523 0.98492783308029175 
-3.4154675006866455 -5.9198269844055176 1.8514271974563599 
-3.4044873714447021 -4.7668976783752441 1.763677716255188 
0.012854485772550106 -6.7999482154846191 3.4961767196655273 
-2.8491208553314209 -5.6793279647827148 2.5356955528259277 
-2.6364405155181885 -3.7604982852935791 2.3997156620025635 
-1.950316309928894 -4.8677310943603516 3.0720746517181396 
-0.89240187406539917 -7.0290651321411133 3.3504807949066162 
-0.91660255193710327 -5.6607961654663086 3.4749765396118164 
-0.93203836679458618 -4.6228084564208984 3.3773612976074219 
0.10705811530351639 -5.2998156547546387 3.5713238716125488 
0.29514002799987793 -11.688234329223633 0.72209113836288452 
0.67244452238082886 -11.31052303314209 1.3744721412658691 
1.167893648147583 -11.980196952819824 1.4637960195541382 
1.7468298673629761 -11.478488922119141 1.7115417718887329 
2.6667821407318115 -11.134872436523438 0.76698577404022217 
2.2964818477630615 -11.505970001220703 1.2972285747528076 
2.8540894985198975 -8.6540555953979492 0.73179632425308228 
3.559147834777832 -7.6373848915100098 0.97603785991668701 
3.1699464321136475 -7.6998386383056641 1.6990741491317749 
2.3373560905456543 -9.0034971237182617 1.4505555629730225 
0.98571228981018066 -8.6930580139160156 2.3379092216491699 
1.8202241659164429 -8.0690822601318359 2.5930566787719727 
0.91429722309112549 -7.8482179641723633 3.0295295715332031 
2.5473530292510986 -7.9118862152099609 2.2439281940460205 
3.4839634895324707 -6.4563031196594238 1.853874683380127 
2.103670597076416 -4.8217506408691406 3.0615689754486084 
1.0652052164077759 -7.0622806549072266 3.3377144336700439 
1.0592207908630371 -5.8002543449401855 3.4756062030792236 
1.1639598608016968 -4.695713996887207 3.3720152378082275 
3.5225944519042969 -5.3726844787597656 1.9065401554107666 
2.9521269798278809 -5.174858570098877 2.5546901226043701 
3.7910175323486328 -4.5813870429992676 1.0869189500808716 
0.11171364039182663 -3.8506863117218018 3.3189182281494141 
-9.2025079727172852 -1.3007882833480835 1.2789311408996582 
-8.9030818939208984 -1.3436603546142578 1.3391011953353882 
-9.1104974746704102 -1.5105773210525513 2.0426666736602783 
-8.446528434753418 -1.3280261754989624 1.004608154296875 
-9.5186395645141602 -1.5137811899185181 1.9111124277114868 
-9.8912029266357422 -0.6493675708770752 0.53655785322189331 
-9.7998027801513672 -0.64358150959014893 0.73667758703231812 
-10.911139488220215 -0.44656273722648621 0.37478679418563843 
-9.8106880187988281 -0.31319296360015869 0.58743131160736084 
-9.6097869873046875 -0.60299581289291382 1.1740468740463257 
-10.685600280761719 -0.30901077389717102 1.328608512878418 
-9.693791389465332 -0.1693064272403717 1.0106921195983887 
-9.6319465637207031 -0.36164635419845581 1.273931622505188 
-8.3252840042114258 0.29204928874969482 1.3183640241622925 
-5.6207666397094727 -1.0021989345550537 0.68990510702133179 
-6.262148380279541 -0.66758012771606445 1.0703192949295044 
-7.886258602142334 -1.1079225540161133 1.3613722324371338 
-7.7945709228515625 -0.20679061114788055 1.4889066219329834 
-5.6252126693725586 -0.054298318922519684 0.97657114267349243 
-7.1924195289611816 0.67582166194915771 0.58931851387023926 
-0.034496154636144638 2.0534379482269287 1.4796215295791626 
-3.0144922733306885 -2.6098687648773193 0.86642724275588989 
-2.7360465526580811 -0.97104805707931519 0.73104608058929443 
-2.7034642696380615 -1.8585072755813599 1.2143939733505249 
-2.2567520141601562 -1.7272495031356812 1.7586268186569214 
-1.644537091255188 -1.8586008548736572 2.2475607395172119 
0.058163296431303024 -0.24653840065002441 2.3560302257537842 
-0.84769529104232788 -1.9117469787597656 2.5514895915985107 
0.10737990587949753 -1.9871425628662109 2.6669943332672119 
-2.5903258323669434 -0.42351838946342468 0.97163277864456177 
-4.0380945205688477 -0.89239037036895752 0.63357895612716675 
-4.5018219947814941 -0.49109429121017456 0.92685055732727051 
-2.3644473552703857 -0.026128942146897316 0.81130498647689819 
-3.277379035949707 0.25034627318382263 0.47957515716552734 
-0.26637828350067139 0.76918202638626099 1.7242785692214966 
-1.2633645534515381 1.6248142719268799 0.53427523374557495 
-1.1866409778594971 2.1211543083190918 0.68271863460540771 
0.24060662090778351 1.1556553840637207 1.1526174545288086 
-0.61506927013397217 1.9363558292388916 1.3617503643035889 
-0.09715145081281662 1.4228889942169189 1.348575234413147 
0.2074158787727356 2.560244083404541 1.0960553884506226 
0.04321005567908287 2.7656412124633789 0.59288430213928223 
3.1334493160247803 -2.5499138832092285 0.8655579686164856 
3.3732640743255615 -4.0786962509155273 1.7754302024841309 
2.4076128005981445 -1.7731890678405762 1.7686012983322144 
2.9377133846282959 -1.096505880355835 0.56213444471359253 
2.8609702587127686 -1.9004694223403931 1.2159494161605835 
2.7514288425445557 -0.51211261749267578 0.97661471366882324 
1.8146078586578369 -1.833806037902832 2.2290184497833252 
1.0390187501907349 -1.9318135976791382 2.5449037551879883 
0.94579100608825684 -0.4152083694934845 2.3075153827667236 
4.4119362831115723 -0.94864571094512939 0.56770855188369751 
4.5642132759094238 -0.44816279411315918 0.93805372714996338 
2.4872066974639893 0.0022489756811410189 0.78272533416748047 
1.0750820636749268 1.9604088068008423 1.1187398433685303 
1.3398956060409546 2.2030372619628906 0.56261074542999268 
0.59586632251739502 1.9506528377532959 1.4164278507232666 
8.5690765380859375 0.20437386631965637 1.4069893360137939 
8.5294942855834961 -1.181536078453064 1.472028374671936 
6.0323033332824707 -0.99334287643432617 0.77097922563552856 
7.4852781295776367 -0.84711694717407227 1.3414267301559448 
5.7644767761230469 -0.037808466702699661 0.96533632278442383 
7.3388609886169434 0.65619736909866333 0.63693422079086304 
8.6538772583007812 -1.3332017660140991 0.87996029853820801 
9.4310178756713867 -1.6337931156158447 1.782787561416626 
9.2410774230957031 -1.3858360052108765 2.1220834255218506 
9.6645078659057617 -1.2896775007247925 2.0779054164886475 
9.9775285720825195 -0.60013437271118164 0.6339726448059082 
11.001852035522461 -0.622639000415802 0.43911418318748474 
9.8583030700683594 -0.15075266361236572 0.84749996662139893 
10.028647422790527 -0.41373467445373535 0.61223089694976807 
10.927181243896484 -0.38348495960235596 0.27686449885368347 
9.8292112350463867 -0.63768172264099121 1.0899244546890259 
10.766630172729492 -0.71095019578933716 1.3296422958374023 
10.924933433532715 -0.30556923151016235 1.3067595958709717 
9.7787485122680664 -0.42326182126998901 1.2819614410400391 
-1.4574226140975952 -12.393173217773438 -0.91022664308547974 
-0.82189959287643433 -12.525509834289551 -0.58155012130737305 
-1.2806061506271362 -9.4264612197875977 -1.4520033597946167 
-1.8547419309616089 -11.174880027770996 -1.3900490999221802 
-2.2343454360961914 -11.160138130187988 -1.0347974300384521 
-2.7328920364379883 -9.7724456787109375 -0.48318862915039062 
-2.2952826023101807 -9.9589862823486328 -1.1456559896469116 
-1.6146386861801147 -10.140337944030762 -1.546269416809082 
-0.14233279228210449 -11.031735420227051 -0.5884966254234314 
-0.90604764223098755 -10.066010475158691 -1.4414503574371338 
-0.2373717725276947 -9.7141580581665039 -0.63037145137786865 
-2.0391743183135986 -9.1093530654907227 -1.2648066282272339 
-0.69063740968704224 -9.5915975570678711 -1.1566390991210938 
-1.8520904779434204 -7.2462153434753418 -2.8335855007171631 
-2.869265079498291 -7.3156375885009766 -2.0653595924377441 
-2.6860084533691406 -6.4724826812744141 -2.3300244808197021 
-0.91524040699005127 -7.2106447219848633 -3.2626461982727051 
-1.7668153047561646 -6.1508092880249023 -2.9648113250732422 
-1.7464684247970581 -12.312221527099609 1.1191290616989136 
-0.54796534776687622 -12.453126907348633 0.7660866379737854 
-3.8197364807128906 -5.8410205841064453 1.0219465494155884 
-2.5495522022247314 -10.970322608947754 0.79956740140914917 
-2.7236559391021729 -9.6955585479736328 0.81196874380111694 
-2.302969217300415 -10.657993316650391 1.3682405948638916 
-1.862208366394043 -11.03248405456543 1.6775647401809692 
-1.4147862195968628 -11.202043533325195 1.7742329835891724 
-1.9569746255874634 -9.9449167251586914 1.6820203065872192 
-1.4847471714019775 -10.168210029602051 1.8156279325485229 
-0.12195209413766861 -11.11834716796875 0.81253141164779663 
-0.12254118174314499 -9.7489480972290039 0.71073800325393677 
-0.95816314220428467 -10.872835159301758 1.7092447280883789 
-0.48802247643470764 -11.331001281738281 1.2977375984191895 
-0.50526660680770874 -10.242148399353027 1.3729052543640137 
-2.2582798004150391 -8.9520359039306641 1.4024497270584106 
-1.5673972368240356 -9.2773504257202148 1.6911478042602539 
-0.59017062187194824 -9.5723400115966797 1.3342306613922119 
-1.1096513271331787 -9.3981361389160156 1.6257302761077881 
-2.5884501934051514 -7.115422248840332 2.497096061706543 
-1.9641727209091187 -6.9111065864562988 2.9823105335235596 
-0.73880654573440552 -7.8623857498168945 3.0255630016326904 
-1.8870061635971069 -5.7573819160461426 3.1511709690093994 
-9.6321792602539062 -0.67731577157974243 -0.66361510753631592 
-8.225250244140625 -0.90000909566879272 -1.3249905109405518 
-8.9968099594116211 -1.2192237377166748 -0.74067288637161255 
-8.3327112197875977 -0.45835727453231812 -1.3620671033859253 
-9.1196269989013672 0.0034888428635895252 -0.90616285800933838 
-7.9855241775512695 -0.027677197009325027 -1.3626842498779297 
-8.5279293060302734 0.45462608337402344 -0.80876028537750244 
-9.6289634704589844 -0.83102136850357056 -0.43369776010513306 
-4.7285885810852051 -0.47838470339775085 -1.4215807914733887 
-5.1924123764038086 0.02421901747584343 -1.407562255859375 
-5.1077909469604492 0.36781135201454163 -1.150137186050415 
-4.5851397514343262 0.49755379557609558 -0.72925788164138794 
-5.3393559455871582 0.68574315309524536 -0.71805262565612793 
-2.583869457244873 -2.8864879608154297 -1.0884842872619629 
-2.1684029102325439 -3.2125358581542969 -1.5590825080871582 
-1.6159971952438354 -3.2131423950195312 -1.8913557529449463 
-0.78616040945053101 -3.1945197582244873 -2.2141945362091064 
-1.4899080991744995 -0.577217698097229 -1.5494314432144165 
-0.5084185004234314 0.54716742038726807 -1.5340883731842041 
-2.3291406631469727 -0.50114089250564575 -0.76621061563491821 
-1.4502147436141968 0.3455948531627655 -1.1610033512115479 
-2.1657769680023193 0.052273381501436234 -0.49364742636680603 
-1.2722101211547852 0.94908791780471802 -0.60738730430603027 
-0.95543539524078369 1.5447689294815063 -0.62400078773498535 
-10.649599075317383 -0.71056848764419556 1.0418603420257568 
-10.83460807800293 -0.43716198205947876 1.108320951461792 
-10.605204582214355 -0.65271687507629395 1.3666009902954102 
-9.2725696563720703 -1.0959244966506958 0.89714294672012329 
-9.1991910934448242 0.26471281051635742 1.0370663404464722 
-9.2944498062133789 -1.0236873626708984 1.6181443929672241 
-8.8382787704467773 -1.2363947629928589 1.6518620252609253 
-8.4617605209350586 -0.86823511123657227 1.7037626504898071 
-8.9623880386352539 -0.50335270166397095 1.7482802867889404 
-9.0181474685668945 0.031310655176639557 1.4913719892501831 
-8.508941650390625 0.51586741209030151 0.93250101804733276 
-9.2916240692138672 -1.2182681560516357 2.1561050415039062 
-5.5490350723266602 0.30844181776046753 0.75312918424606323 
-3.1035723686218262 -3.6176285743713379 1.7006080150604248 
-1.822608470916748 -3.4854633808135986 2.837907075881958 
-0.90162146091461182 -3.2947638034820557 3.0646054744720459 
-2.1792798042297363 -0.41208404302597046 1.5612620115280151 
-1.5879696607589722 -0.53508496284484863 2.052109956741333 
-1.5980321168899536 0.45651936531066895 1.4575235843658447 
-1.0776492357254028 0.92930185794830322 1.1842423677444458 
-0.71634024381637573 1.1708636283874512 0.82563340663909912 
-0.89643782377243042 1.586992621421814 1.0563369989395142 
-0.71270620822906494 0.31568890810012817 1.9810577630996704 
-0.82861697673797607 -0.35866737365722656 2.2781507968902588 
-0.68013906478881836 2.4459917545318604 1.0286155939102173 
1.0728210210800171 -12.403738021850586 -0.89443647861480713 
1.943906307220459 -12.290453910827637 -0.79889756441116333 
0.8388291597366333 -9.584935188293457 -1.1704807281494141 
1.3166571855545044 -9.4574851989746094 -1.4095743894577026 
0.74382895231246948 -10.647731781005859 -1.2500263452529907 
1.1589179039001465 -10.37847900390625 -1.5128754377365112 
1.694286584854126 -10.65593433380127 -1.5636312961578369 
0.41583019495010376 -9.7057695388793945 -0.69816982746124268 
2.1646904945373535 -10.01793098449707 -1.3830758333206177 
2.3152434825897217 -10.950277328491211 -1.1775099039077759 
2.8504569530487061 -9.7802248001098633 -0.57399147748947144 
2.0098683834075928 -7.3954272270202637 -2.7717428207397461 
2.0312464237213135 -6.4552946090698242 -2.9195010662078857 
2.7886142730712891 -7.6030058860778809 -2.1512560844421387 
2.8821923732757568 -6.148155689239502 -2.375504732131958 
1.2783355712890625 -12.604820251464844 0.72677773237228394 
0.78181326389312744 -12.379276275634766 0.95077991485595703 
1.6711792945861816 -12.366702079772949 1.2366901636123657 
1.0958364009857178 -10.360916137695312 1.7109513282775879 
1.6099681854248047 -10.46314811706543 1.8369354009628296 
0.74112462997436523 -9.5818004608154297 1.3341023921966553 
2.8812024593353271 -9.7200040817260742 0.78675097227096558 
2.1611309051513672 -10.379718780517578 1.6567643880844116 
2.5849664211273193 -9.6854619979858398 1.2602523565292358 
1.2744837999343872 -9.4186525344848633 1.631696343421936 
1.7658491134643555 -9.24761962890625 1.6878353357315063 
2.1347017288208008 -6.9127483367919922 2.9597258567810059 
2.849534273147583 -6.8212318420410156 2.4804537296295166 
2.0379238128662109 -5.8516941070556641 3.1452562808990479 
3.89974045753479 -6.4806075096130371 1.006628155708313 
3.933828592300415 -5.6868925094604492 1.0990928411483765 
0.85444927215576172 -3.0767121315002441 -2.1797153949737549 
1.9674502611160278 -3.350252628326416 -1.8493443727493286 
2.6709630489349365 -3.0920486450195312 -1.1960238218307495 
3.0264954566955566 -2.968975305557251 -0.70100921392440796 
0.89794826507568359 0.021060578525066376 -1.721347451210022 
1.8476688861846924 0.012159066274762154 -1.1347144842147827 
1.1102290153503418 0.6736566424369812 -1.2286417484283447 
1.763813853263855 0.69530057907104492 -0.6068083643913269 
5.0343213081359863 -0.21007417142391205 -1.4231212139129639 
4.9374737739562988 0.21087273955345154 -1.164647102355957 
4.9503931999206543 0.54426556825637817 -0.78073006868362427 
5.9107012748718262 0.77461922168731689 -0.44216197729110718 
7.9177699089050293 -1.2993435859680176 -1.2275538444519043 
9.0160865783691406 -0.26698419451713562 -1.1321135759353638 
9.2832298278808594 -0.83536785840988159 -0.94579309225082397 
8.6474237442016602 0.31157878041267395 -0.98916822671890259 
8.9727535247802734 0.47932738065719604 -0.52232712507247925 
1.0047262907028198 -3.2535386085510254 3.0591304302215576 
2.0037574768066406 -3.5058932304382324 2.819760799407959 
2.7367515563964844 -3.5640287399291992 2.3431506156921387 
1.7285255193710327 -0.31634002923965454 2.0015101432800293 
2.1195800304412842 0.27551141381263733 1.2456965446472168 
2.4418914318084717 -0.51421070098876953 1.4754146337509155 
0.99352556467056274 1.1946966648101807 0.65987849235534668 
1.6392253637313843 0.90686798095703125 0.86613339185714722 
0.79533845186233521 1.4176262617111206 1.1415566205978394 
1.0967824459075928 0.77618390321731567 1.5160117149353027 
0.83046478033065796 0.46542215347290039 1.8828221559524536 
5.6326565742492676 0.28015616536140442 0.77003157138824463 
6.0536003112792969 -0.59938234090805054 1.0292419195175171 
0.81621116399765015 2.3482735157012939 1.1506251096725464 
8.9772853851318359 -1.2306339740753174 1.6610443592071533 
8.6065521240234375 -0.80210506916046143 1.7241113185882568 
7.8786964416503906 -0.29509037733078003 1.4953600168228149 
9.1361474990844727 -0.35180452466011047 1.7103379964828491 
9.5044460296630859 -1.0248374938964844 1.0512287616729736 
9.1529369354248047 -1.3291370868682861 1.2844640016555786 
9.4796466827392578 -1.1532288789749146 1.4088848829269409 
9.294403076171875 -1.0114467144012451 1.6741313934326172 
9.3132743835449219 0.17394466698169708 1.2422946691513062 
10.942220687866211 -0.80437624454498291 0.18080040812492371 
10.831868171691895 -0.62685787677764893 0.99784654378890991 
3 0 339 4 
3 3 0 4 
3 1 4 2 
3 1 3 4 
3 340 339 8 
3 0 6 339 
3 8 339 6 
3 9 10 8 
3 340 4 339 
3 2 4 11 
3 4 340 12 
3 11 4 12 
3 8 10 340 
3 10 12 340 
3 5 12 10 
3 34 38 33 
3 36 33 38 
3 39 35 36 
3 39 40 41 
3 42 39 38 
3 39 36 38 
3 38 37 42 
3 43 40 39 
3 43 39 42 
3 44 43 42 
3 18 17 341 
3 23 20 22 
3 22 341 17 
3 22 20 24 
3 0 343 342 
3 6 342 346 
3 345 346 342 
3 343 345 342 
3 343 344 345 
3 343 0 3 
3 3 344 343 
3 25 344 3 
3 25 26 344 
3 6 0 342 
3 6 7 8 
3 8 7 9 
3 7 6 346 
3 348 9 7 
3 348 7 346 
3 349 9 348 
3 349 347 9 
3 347 10 9 
3 347 5 10 
3 5 347 28 
3 28 347 27 
3 350 346 345 
3 350 345 29 
3 341 346 350 
3 344 29 345 
3 29 18 350 
3 350 18 341 
3 31 29 344 
3 29 31 30 
3 31 344 26 
3 346 341 348 
3 22 24 341 
3 341 24 351 
3 349 348 351 
3 348 341 351 
3 19 351 24 
3 349 351 19 
3 347 349 27 
3 349 19 32 
3 32 27 349 
3 14 15 13 
3 16 15 14 
3 18 33 353 
3 353 352 18 
3 17 18 352 
3 35 354 353 
3 354 352 353 
3 352 355 21 
3 21 22 17 
3 21 17 352 
3 13 21 355 
3 13 23 21 
3 23 22 21 
3 356 352 354 
3 47 46 354 
3 354 46 356 
3 14 356 46 
3 35 47 354 
3 47 35 41 
3 356 355 352 
3 356 14 355 
3 355 14 13 
3 48 14 46 
3 49 14 48 
3 16 14 49 
3 18 29 33 
3 36 353 33 
3 35 353 36 
3 34 33 29 
3 34 29 30 
3 35 39 41 
3 1 2 357 
3 216 1 357 
3 357 217 216 
3 357 2 11 
3 358 12 5 
3 358 5 218 
3 11 12 358 
3 217 357 11 
3 217 11 358 
3 358 219 217 
3 218 219 358 
3 37 38 34 
3 37 34 227 
3 359 42 37 
3 359 37 227 
3 42 359 44 
3 229 44 359 
3 230 359 227 
3 231 359 230 
3 231 229 359 
3 25 3 1 
3 360 25 1 
3 360 1 216 
3 360 361 25 
3 216 362 360 
3 217 363 216 
3 362 216 363 
3 217 364 363 
3 360 362 361 
3 365 362 363 
3 365 363 366 
3 367 5 28 
3 218 5 367 
3 28 27 368 
3 367 28 368 
3 217 219 364 
3 219 369 364 
3 370 219 218 
3 367 370 218 
3 371 370 367 
3 369 219 370 
3 369 366 364 
3 367 368 371 
3 370 371 369 
3 25 361 26 
3 30 31 26 
3 26 361 30 
3 362 372 361 
3 362 365 372 
3 365 366 373 
3 365 373 372 
3 372 30 361 
3 220 30 372 
3 224 372 373 
3 32 368 27 
3 374 368 32 
3 366 369 375 
3 373 366 375 
3 375 369 371 
3 374 371 368 
3 374 32 222 
3 375 371 374 
3 374 222 221 
3 366 363 364 
3 372 224 220 
3 373 223 224 
3 375 223 373 
3 223 375 225 
3 374 221 225 
3 375 374 225 
3 30 227 34 
3 30 220 227 
3 220 228 227 
3 230 227 228 
3 224 376 220 
3 220 376 228 
3 228 233 230 
3 228 376 233 
3 376 224 377 
3 377 224 223 
3 223 225 378 
3 378 236 223 
3 378 225 226 
3 236 378 226 
3 223 236 377 
3 232 236 226 
3 233 231 230 
3 376 377 233 
3 377 379 233 
3 379 235 233 
3 377 236 379 
3 236 237 379 
3 237 235 379 
3 237 238 235 
3 232 237 236 
3 237 232 239 
3 238 237 239 
3 92 91 98 
3 380 91 92 
3 98 91 95 
3 94 96 95 
3 98 97 92 
3 96 94 93 
3 89 88 90 
3 382 380 381 
3 380 383 381 
3 380 384 383 
3 385 383 384 
3 91 380 387 
3 387 380 382 
3 99 387 382 
3 95 91 387 
3 95 387 99 
3 99 382 89 
3 380 92 97 
3 97 98 96 
3 380 101 384 
3 97 101 380 
3 96 98 95 
3 97 96 101 
3 101 96 100 
3 382 381 105 
3 382 105 88 
3 381 107 105 
3 381 383 107 
3 107 103 105 
3 88 105 104 
3 385 384 386 
3 107 383 385 
3 106 107 385 
3 89 382 88 
3 386 384 101 
3 108 386 101 
3 110 386 108 
3 106 385 386 
3 109 106 386 
3 110 109 386 
3 110 111 109 
3 43 113 112 
3 90 88 114 
3 104 105 103 
3 127 125 104 
3 127 104 103 
3 125 88 104 
3 125 114 88 
3 103 388 127 
3 106 389 107 
3 103 107 388 
3 389 388 107 
3 90 114 124 
3 125 127 121 
3 126 127 388 
3 388 389 126 
3 126 389 128 
3 390 128 389 
3 390 391 131 
3 128 390 131 
3 124 114 129 
3 114 123 129 
3 131 391 130 
3 390 106 109 
3 392 390 109 
3 390 389 106 
3 390 392 391 
3 109 111 392 
3 132 392 111 
3 132 130 392 
3 130 391 392 
3 394 47 393 
3 395 46 394 
3 47 394 46 
3 395 48 46 
3 396 48 395 
3 49 48 396 
3 115 49 396 
3 116 395 394 
3 396 395 118 
3 117 396 118 
3 118 395 116 
3 117 115 396 
3 120 117 118 
3 393 47 41 
3 112 41 40 
3 41 112 393 
3 112 40 43 
3 394 122 116 
3 393 122 394 
3 122 393 112 
3 123 112 113 
3 123 121 112 
3 397 119 118 
3 118 116 397 
3 120 118 119 
3 120 119 398 
3 133 120 398 
3 127 126 121 
3 397 116 122 
3 397 122 126 
3 126 122 112 
3 126 112 121 
3 399 397 126 
3 126 128 399 
3 397 399 400 
3 399 401 400 
3 121 123 114 
3 125 121 114 
3 128 401 399 
3 131 401 128 
3 401 131 136 
3 130 136 131 
3 119 397 400 
3 119 400 398 
3 135 136 130 
3 134 400 401 
3 402 400 134 
3 136 134 401 
3 134 136 135 
3 400 402 137 
3 400 137 398 
3 133 398 137 
3 402 141 137 
3 141 140 137 
3 140 141 139 
3 403 138 142 
3 139 142 143 
3 145 402 134 
3 145 144 402 
3 141 144 403 
3 147 138 403 
3 144 147 403 
3 146 138 147 
3 402 144 141 
3 403 142 141 
3 142 139 141 
3 149 142 138 
3 143 142 149 
3 146 150 138 
3 138 152 149 
3 138 150 152 
3 151 152 148 
3 152 150 148 
3 270 94 268 
3 94 270 93 
3 93 100 96 
3 100 93 270 
3 271 270 268 
3 405 404 406 
3 404 269 272 
3 406 404 272 
3 269 404 271 
3 405 271 404 
3 273 271 405 
3 273 274 271 
3 406 272 275 
3 406 273 405 
3 275 273 406 
3 264 267 263 
3 267 264 265 
3 94 95 268 
3 407 95 99 
3 268 95 269 
3 269 95 407 
3 89 266 99 
3 407 99 266 
3 271 100 270 
3 102 101 100 
3 271 268 269 
3 100 271 274 
3 102 100 274 
3 408 102 274 
3 407 272 269 
3 272 407 409 
3 409 263 267 
3 264 263 407 
3 263 409 407 
3 264 407 266 
3 410 264 266 
3 265 264 410 
3 272 409 412 
3 409 410 412 
3 411 412 410 
3 275 274 273 
3 408 274 275 
3 413 408 275 
3 276 408 413 
3 275 272 412 
3 413 275 412 
3 413 412 280 
3 266 89 90 
3 410 266 279 
3 279 266 90 
3 410 279 411 
3 411 279 278 
3 279 90 277 
3 280 412 411 
3 280 276 413 
3 276 280 281 
3 280 411 278 
3 108 101 102 
3 108 102 408 
3 408 414 108 
3 414 408 276 
3 110 108 414 
3 282 110 414 
3 111 110 282 
3 276 282 414 
3 409 267 415 
3 265 410 415 
3 409 415 410 
3 415 267 265 
3 113 43 44 
3 113 44 229 
3 284 113 229 
3 90 124 277 
3 129 277 124 
3 294 278 277 
3 278 279 277 
3 280 278 281 
3 276 281 416 
3 277 129 293 
3 293 294 277 
3 285 294 293 
3 416 281 295 
3 295 281 292 
3 281 278 294 
3 292 281 294 
3 282 276 416 
3 132 111 282 
3 296 132 282 
3 296 282 416 
3 416 295 296 
3 130 132 296 
3 417 229 231 
3 229 417 284 
3 123 113 284 
3 284 285 123 
3 417 286 284 
3 417 234 286 
3 287 286 234 
3 286 285 284 
3 233 234 231 
3 234 417 231 
3 233 235 234 
3 418 234 235 
3 238 418 235 
3 419 418 238 
3 238 239 262 
3 419 238 262 
3 418 288 234 
3 234 288 287 
3 288 418 290 
3 290 291 289 
3 418 419 290 
3 419 262 291 
3 291 290 419 
3 123 293 129 
3 123 285 293 
3 294 285 292 
3 295 135 296 
3 295 145 135 
3 292 285 286 
3 292 286 420 
3 287 420 286 
3 292 145 295 
3 422 292 420 
3 292 422 145 
3 135 130 296 
3 145 134 135 
3 145 424 144 
3 424 145 423 
3 144 298 147 
3 298 144 424 
3 146 147 298 
3 424 425 298 
3 299 298 425 
3 423 145 422 
3 297 423 422 
3 422 426 297 
3 423 300 424 
3 300 423 297 
3 301 299 425 
3 424 302 425 
3 300 302 424 
3 302 301 425 
3 301 302 283 
3 421 420 287 
3 287 288 421 
3 288 290 421 
3 427 421 290 
3 289 427 290 
3 422 420 421 
3 421 427 426 
3 426 422 421 
3 427 289 426 
3 426 289 297 
3 298 299 146 
3 150 146 299 
3 150 299 428 
3 148 150 428 
3 304 148 428 
3 428 303 304 
3 299 301 428 
3 428 283 303 
3 283 428 301 
3 52 430 429 
3 429 50 51 
3 52 429 51 
3 429 57 50 
3 53 57 56 
3 57 53 50 
3 54 57 429 
3 429 430 54 
3 430 52 59 
3 54 430 58 
3 58 430 59 
3 59 61 58 
3 59 60 61 
3 431 19 24 
3 431 24 20 
3 20 64 66 
3 432 431 20 
3 66 65 67 
3 55 433 50 
3 50 433 51 
3 51 434 435 
3 433 434 51 
3 51 435 52 
3 434 433 431 
3 55 436 433 
3 436 431 433 
3 66 435 434 
3 435 66 437 
3 50 53 55 
3 55 32 436 
3 68 55 53 
3 55 68 32 
3 52 435 438 
3 52 438 59 
3 59 438 60 
3 437 438 435 
3 438 437 439 
3 61 60 69 
3 60 438 439 
3 60 439 69 
3 70 69 439 
3 436 19 431 
3 432 434 431 
3 66 434 432 
3 20 66 432 
3 19 436 32 
3 72 437 66 
3 437 72 439 
3 67 72 66 
3 71 72 67 
3 439 72 73 
3 71 73 72 
3 73 70 439 
3 15 45 13 
3 23 45 64 
3 45 23 13 
3 23 64 20 
3 45 65 64 
3 65 45 440 
3 62 45 15 
3 441 45 62 
3 45 441 440 
3 64 65 66 
3 440 441 443 
3 65 440 442 
3 67 65 442 
3 67 442 82 
3 443 442 440 
3 82 442 76 
3 442 443 76 
3 16 63 15 
3 62 15 63 
3 75 441 62 
3 63 75 62 
3 63 16 49 
3 74 63 49 
3 75 63 74 
3 75 443 441 
3 443 77 76 
3 78 443 75 
3 443 78 77 
3 71 67 82 
3 71 82 80 
3 82 81 80 
3 81 82 76 
3 71 80 79 
3 71 79 73 
3 81 84 80 
3 79 80 84 
3 84 81 85 
3 77 81 76 
3 77 83 81 
3 87 81 83 
3 85 81 87 
3 85 87 86 
3 240 53 56 
3 444 56 57 
3 56 444 445 
3 240 56 445 
3 444 57 54 
3 54 58 444 
3 444 58 446 
3 241 240 445 
3 241 445 242 
3 446 445 444 
3 445 446 242 
3 242 446 243 
3 446 58 61 
3 61 244 245 
3 245 446 61 
3 245 243 446 
3 68 53 240 
3 222 68 240 
3 68 222 32 
3 241 222 240 
3 241 242 243 
3 243 447 241 
3 447 243 448 
3 449 222 241 
3 447 449 241 
3 61 69 244 
3 450 244 69 
3 245 451 243 
3 243 451 448 
3 245 244 450 
3 452 245 450 
3 452 451 245 
3 221 222 449 
3 447 453 449 
3 448 453 447 
3 453 448 454 
3 70 450 69 
3 450 70 246 
3 246 70 73 
3 448 451 454 
3 454 451 249 
3 249 451 452 
3 248 253 249 
3 452 450 246 
3 452 246 249 
3 249 247 248 
3 449 250 221 
3 250 225 221 
3 250 449 453 
3 453 454 250 
3 251 250 454 
3 250 252 225 
3 249 251 454 
3 253 251 249 
3 73 79 246 
3 246 79 247 
3 247 249 246 
3 248 247 254 
3 226 225 252 
3 226 252 256 
3 252 250 251 
3 251 256 252 
3 256 232 226 
3 253 456 455 
3 253 248 456 
3 248 254 456 
3 253 455 251 
3 455 256 251 
3 457 256 455 
3 257 256 457 
3 239 257 258 
3 255 258 457 
3 258 257 457 
3 254 259 260 
3 254 260 456 
3 455 260 457 
3 260 455 456 
3 457 260 255 
3 257 232 256 
3 257 239 232 
3 79 84 247 
3 84 85 458 
3 458 247 84 
3 254 247 458 
3 85 86 459 
3 85 459 458 
3 459 86 261 
3 459 254 458 
3 259 254 459 
3 259 459 261 
3 75 74 460 
3 49 115 74 
3 74 115 460 
3 460 461 75 
3 78 75 461 
3 462 77 78 
3 461 462 78 
3 460 115 117 
3 155 460 117 
3 461 460 156 
3 155 156 460 
3 117 154 155 
3 156 155 154 
3 462 83 77 
3 83 463 158 
3 158 463 157 
3 159 156 153 
3 461 156 159 
3 462 461 159 
3 161 462 159 
3 83 462 463 
3 161 463 462 
3 159 160 161 
3 162 161 163 
3 463 161 162 
3 463 162 157 
3 154 117 120 
3 153 156 154 
3 153 154 464 
3 464 154 120 
3 120 133 464 
3 153 464 465 
3 465 160 153 
3 465 464 466 
3 153 160 159 
3 161 160 163 
3 173 171 163 
3 173 160 465 
3 160 173 163 
3 170 162 163 
3 169 173 181 
3 169 181 182 
3 137 140 133 
3 466 133 140 
3 466 464 133 
3 466 467 465 
3 173 465 467 
3 467 466 140 
3 139 143 176 
3 177 178 140 
3 467 140 178 
3 140 139 179 
3 177 140 179 
3 176 179 139 
3 181 173 467 
3 178 181 467 
3 180 169 182 
3 87 83 158 
3 158 164 87 
3 171 172 163 
3 170 163 172 
3 172 187 170 
3 469 171 173 
3 171 469 468 
3 171 468 172 
3 168 162 170 
3 168 174 162 
3 168 170 165 
3 183 168 165 
3 187 186 170 
3 187 172 185 
3 188 172 468 
3 468 184 188 
3 468 469 184 
3 185 172 188 
3 184 190 188 
3 165 170 186 
3 165 186 166 
3 167 183 165 
3 165 166 167 
3 470 469 173 
3 470 173 169 
3 180 191 169 
3 191 470 169 
3 471 470 191 
3 193 469 470 
3 193 184 469 
3 193 470 471 
3 192 471 191 
3 471 195 193 
3 471 192 195 
3 176 143 149 
3 149 151 176 
3 151 149 152 
3 214 151 148 
3 179 176 215 
3 215 176 151 
3 175 179 215 
3 215 151 214 
3 166 197 196 
3 197 166 186 
3 187 472 186 
3 185 472 187 
3 189 472 185 
3 197 186 472 
3 472 189 474 
3 188 189 185 
3 189 188 190 
3 189 190 473 
3 475 473 190 
3 199 197 472 
3 472 474 199 
3 473 474 189 
3 207 474 473 
3 207 473 475 
3 199 198 197 
3 202 199 474 
3 202 474 207 
3 201 202 207 
3 200 202 203 
3 199 202 200 
3 199 200 204 
3 200 205 204 
3 207 475 206 
3 207 205 208 
3 210 205 209 
3 205 207 209 
3 209 207 206 
3 190 184 193 
3 193 194 190 
3 194 475 190 
3 194 476 475 
3 193 195 194 
3 192 211 195 
3 476 194 195 
3 195 212 476 
3 212 195 211 
3 476 206 475 
3 213 476 212 
3 206 476 213 
3 202 201 203 
3 203 201 208 
3 208 200 203 
3 204 205 210 
3 208 201 207 
3 205 200 208 
3 306 261 305 
3 308 157 162 
3 305 157 308 
3 305 308 309 
3 306 305 309 
3 309 307 306 
3 258 262 239 
3 258 255 478 
3 262 258 477 
3 477 258 478 
3 260 259 306 
3 260 306 479 
3 260 478 255 
3 479 478 260 
3 312 478 311 
3 289 291 312 
3 291 262 477 
3 291 477 312 
3 477 478 312 
3 479 307 478 
3 311 478 307 
3 306 307 479 
3 308 162 174 
3 308 174 314 
3 308 314 310 
3 315 310 314 
3 316 180 182 
3 482 307 309 
3 309 308 310 
3 482 309 310 
3 481 482 310 
3 316 481 310 
3 481 480 482 
3 177 484 178 
3 484 177 483 
3 485 300 483 
3 175 177 179 
3 177 175 483 
3 485 483 175 
3 175 318 317 
3 317 485 175 
3 483 300 484 
3 300 486 484 
3 300 297 486 
3 297 487 486 
3 484 486 481 
3 487 480 486 
3 481 486 480 
3 485 302 300 
3 319 485 317 
3 302 485 319 
3 283 302 319 
3 178 182 181 
3 481 316 178 
3 316 182 178 
3 484 481 178 
3 313 289 312 
3 480 312 311 
3 313 312 480 
3 289 313 487 
3 313 480 487 
3 311 307 480 
3 482 480 307 
3 487 297 289 
3 164 86 87 
3 261 86 164 
3 164 158 157 
3 164 157 305 
3 305 261 164 
3 259 261 306 
3 168 314 174 
3 183 314 168 
3 324 316 310 
3 488 316 324 
3 310 315 324 
3 322 183 167 
3 183 322 314 
3 314 322 315 
3 489 315 322 
3 322 323 489 
3 324 315 489 
3 324 489 323 
3 320 488 324 
3 488 180 316 
3 325 191 180 
3 325 192 191 
3 325 180 488 
3 325 488 320 
3 304 214 148 
3 303 214 304 
3 303 490 214 
3 175 215 318 
3 214 318 215 
3 317 318 490 
3 318 214 490 
3 319 317 490 
3 490 303 283 
3 283 319 490 
3 166 196 167 
3 196 197 326 
3 329 328 327 
3 167 321 322 
3 326 197 198 
3 321 167 196 
3 321 196 326 
3 323 322 321 
3 321 491 492 
3 321 492 323 
3 493 323 492 
3 324 493 320 
3 323 493 324 
3 494 493 492 
3 493 494 320 
3 198 199 495 
3 495 326 198 
3 204 495 199 
3 330 495 204 
3 335 495 330 
3 334 209 333 
3 209 206 213 
3 331 333 330 
3 213 332 209 
3 333 209 332 
3 491 321 326 
3 326 496 491 
3 326 495 496 
3 496 495 497 
3 496 497 327 
3 491 496 327 
3 492 491 498 
3 492 498 494 
3 498 497 495 
3 335 338 495 
3 498 495 338 
3 335 330 336 
3 327 497 329 
3 320 494 499 
3 337 332 338 
3 499 332 213 
3 499 338 332 
3 498 338 494 
3 499 494 338 
3 211 192 325 
3 211 325 320 
3 213 212 211 
3 213 211 499 
3 320 499 211 
3 491 327 328 
3 498 329 497 
3 329 498 491 
3 329 491 328 
3 204 210 500 
3 500 330 204 
3 331 330 500 
3 334 210 209 
3 334 333 331 
3 331 210 334 
3 331 500 210 
3 501 330 333 
3 336 330 501 
3 501 333 337 
3 337 333 332 
3 338 335 336 
3 336 501 337 
3 338 336 337 
