# Blender v2.81 (sub 16) OBJ File: 'tpose.blend'
# www.blender.org
mtllib cloth.mtl
o Grid
v -1.400000 -0.321262 1.400000
v -1.088888 -0.321262 1.400000
v -1.088888 -0.321262 1.088888
v -1.400000 -0.321262 1.088888
v -0.777778 -0.321262 1.400000
v -0.777778 -0.321262 1.088888
v -0.466666 -0.321262 1.400000
v -0.466666 -0.321262 1.088888
v -0.155556 -0.321262 1.400000
v -0.155556 -0.321262 1.088888
v 0.155556 -0.321262 1.400000
v 0.155556 -0.321262 1.088888
v 0.466666 -0.321262 1.400000
v 0.466666 -0.321262 1.088888
v 0.777778 -0.321262 1.400000
v 0.777778 -0.321262 1.088888
v 1.088888 -0.321262 1.400000
v 1.088888 -0.321262 1.088888
v 1.400000 -0.321262 1.400000
v 1.400000 -0.321262 1.088888
v -1.088888 -0.321262 0.777778
v -1.400000 -0.321262 0.777778
v -0.777778 -0.321262 0.777778
v -0.466666 -0.321262 0.777778
v -0.155556 -0.321262 0.777778
v 0.155556 -0.321262 0.777778
v 0.466666 -0.321262 0.777778
v 0.777778 -0.321262 0.777778
v 1.088888 -0.321262 0.777778
v 1.400000 -0.321262 0.777778
v -1.088888 -0.321262 0.466666
v -1.400000 -0.321262 0.466666
v -0.777778 -0.321262 0.466666
v -0.466666 -0.321262 0.466666
v -0.155556 -0.321262 0.466666
v 0.155556 -0.321262 0.466666
v 0.466666 -0.321262 0.466666
v 0.777778 -0.321262 0.466666
v 1.088888 -0.321262 0.466666
v 1.400000 -0.321262 0.466666
v -1.088888 -0.321262 0.155556
v -1.400000 -0.321262 0.155556
v -0.777778 -0.321262 0.155556
v -0.466666 -0.321262 0.155556
v -0.155556 -0.321262 0.155556
v 0.155556 -0.321262 0.155556
v 0.466666 -0.321262 0.155556
v 0.777778 -0.321262 0.155556
v 1.088888 -0.321262 0.155556
v 1.400000 -0.321262 0.155556
v -1.088888 -0.321262 -0.155556
v -1.400000 -0.321262 -0.155556
v -0.777778 -0.321262 -0.155556
v -0.466666 -0.321262 -0.155556
v -0.155556 -0.321262 -0.155556
v 0.155556 -0.321262 -0.155556
v 0.466666 -0.321262 -0.155556
v 0.777778 -0.321262 -0.155556
v 1.088888 -0.321262 -0.155556
v 1.400000 -0.321262 -0.155556
v -1.088888 -0.321262 -0.466666
v -1.400000 -0.321262 -0.466666
v -0.777778 -0.321262 -0.466666
v -0.466666 -0.321262 -0.466666
v -0.155556 -0.321262 -0.466666
v 0.155556 -0.321262 -0.466666
v 0.466666 -0.321262 -0.466666
v 0.777778 -0.321262 -0.466666
v 1.088888 -0.321262 -0.466666
v 1.400000 -0.321262 -0.466666
v -1.088888 -0.321262 -0.777778
v -1.400000 -0.321262 -0.777778
v -0.777778 -0.321262 -0.777778
v -0.466666 -0.321262 -0.777778
v -0.155556 -0.321262 -0.777778
v 0.155556 -0.321262 -0.777778
v 0.466666 -0.321262 -0.777778
v 0.777778 -0.321262 -0.777778
v 1.088888 -0.321262 -0.777778
v 1.400000 -0.321262 -0.777778
v -1.088888 -0.321262 -1.088888
v -1.400000 -0.321262 -1.088888
v -0.777778 -0.321262 -1.088888
v -0.466666 -0.321262 -1.088888
v -0.155556 -0.321262 -1.088888
v 0.155556 -0.321262 -1.088888
v 0.466666 -0.321262 -1.088888
v 0.777778 -0.321262 -1.088888
v 1.088888 -0.321262 -1.088888
v 1.400000 -0.321262 -1.088888
v -1.088888 -0.321262 -1.400000
v -1.400000 -0.321262 -1.400000
v -0.777778 -0.321262 -1.400000
v -0.466666 -0.321262 -1.400000
v -0.155556 -0.321262 -1.400000
v 0.155556 -0.321262 -1.400000
v 0.466666 -0.321262 -1.400000
v 0.777778 -0.321262 -1.400000
v 1.088888 -0.321262 -1.400000
v 1.400000 -0.321262 -1.400000
vt 0.000000 0.000000
vt 0.111111 0.000000
vt 0.111111 0.111111
vt 0.000000 0.111111
vt 0.222222 0.000000
vt 0.222222 0.111111
vt 0.333333 0.000000
vt 0.333333 0.111111
vt 0.444444 0.000000
vt 0.444444 0.111111
vt 0.555556 0.000000
vt 0.555556 0.111111
vt 0.666667 0.000000
vt 0.666667 0.111111
vt 0.777778 0.000000
vt 0.777778 0.111111
vt 0.888889 0.000000
vt 0.888889 0.111111
vt 1.000000 0.000000
vt 1.000000 0.111111
vt 0.111111 0.222222
vt 0.000000 0.222222
vt 0.222222 0.222222
vt 0.333333 0.222222
vt 0.444444 0.222222
vt 0.555556 0.222222
vt 0.666667 0.222222
vt 0.777778 0.222222
vt 0.888889 0.222222
vt 1.000000 0.222222
vt 0.111111 0.333333
vt 0.000000 0.333333
vt 0.222222 0.333333
vt 0.333333 0.333333
vt 0.444444 0.333333
vt 0.555556 0.333333
vt 0.666667 0.333333
vt 0.777778 0.333333
vt 0.888889 0.333333
vt 1.000000 0.333333
vt 0.111111 0.444444
vt 0.000000 0.444444
vt 0.222222 0.444444
vt 0.333333 0.444444
vt 0.444444 0.444444
vt 0.555556 0.444444
vt 0.666667 0.444444
vt 0.777778 0.444444
vt 0.888889 0.444444
vt 1.000000 0.444444
vt 0.111111 0.555556
vt 0.000000 0.555556
vt 0.222222 0.555556
vt 0.333333 0.555556
vt 0.444444 0.555556
vt 0.555556 0.555556
vt 0.666667 0.555556
vt 0.777778 0.555556
vt 0.888889 0.555556
vt 1.000000 0.555556
vt 0.111111 0.666667
vt 0.000000 0.666667
vt 0.222222 0.666667
vt 0.333333 0.666667
vt 0.444444 0.666667
vt 0.555556 0.666667
vt 0.666667 0.666667
vt 0.777778 0.666667
vt 0.888889 0.666667
vt 1.000000 0.666667
vt 0.111111 0.777778
vt 0.000000 0.777778
vt 0.222222 0.777778
vt 0.333333 0.777778
vt 0.444444 0.777778
vt 0.555556 0.777778
vt 0.666667 0.777778
vt 0.777778 0.777778
vt 0.888889 0.777778
vt 1.000000 0.777778
vt 0.111111 0.888889
vt 0.000000 0.888889
vt 0.222222 0.888889
vt 0.333333 0.888889
vt 0.444444 0.888889
vt 0.555556 0.888889
vt 0.666667 0.888889
vt 0.777778 0.888889
vt 0.888889 0.888889
vt 1.000000 0.888889
vt 0.111111 1.000000
vt 0.000000 1.000000
vt 0.222222 1.000000
vt 0.333333 1.000000
vt 0.444444 1.000000
vt 0.555556 1.000000
vt 0.666667 1.000000
vt 0.777778 1.000000
vt 0.888889 1.000000
vt 1.000000 1.000000
vn 0.0000 1.0000 0.0000
usemtl None
s 1
f 1/1/1 2/2/1 3/3/1 4/4/1
f 2/2/1 5/5/1 6/6/1 3/3/1
f 5/5/1 7/7/1 8/8/1 6/6/1
f 7/7/1 9/9/1 10/10/1 8/8/1
f 9/9/1 11/11/1 12/12/1 10/10/1
f 11/11/1 13/13/1 14/14/1 12/12/1
f 13/13/1 15/15/1 16/16/1 14/14/1
f 15/15/1 17/17/1 18/18/1 16/16/1
f 17/17/1 19/19/1 20/20/1 18/18/1
f 4/4/1 3/3/1 21/21/1 22/22/1
f 3/3/1 6/6/1 23/23/1 21/21/1
f 6/6/1 8/8/1 24/24/1 23/23/1
f 8/8/1 10/10/1 25/25/1 24/24/1
f 10/10/1 12/12/1 26/26/1 25/25/1
f 12/12/1 14/14/1 27/27/1 26/26/1
f 14/14/1 16/16/1 28/28/1 27/27/1
f 16/16/1 18/18/1 29/29/1 28/28/1
f 18/18/1 20/20/1 30/30/1 29/29/1
f 22/22/1 21/21/1 31/31/1 32/32/1
f 21/21/1 23/23/1 33/33/1 31/31/1
f 23/23/1 24/24/1 34/34/1 33/33/1
f 24/24/1 25/25/1 35/35/1 34/34/1
f 25/25/1 26/26/1 36/36/1 35/35/1
f 26/26/1 27/27/1 37/37/1 36/36/1
f 27/27/1 28/28/1 38/38/1 37/37/1
f 28/28/1 29/29/1 39/39/1 38/38/1
f 29/29/1 30/30/1 40/40/1 39/39/1
f 32/32/1 31/31/1 41/41/1 42/42/1
f 31/31/1 33/33/1 43/43/1 41/41/1
f 33/33/1 34/34/1 44/44/1 43/43/1
f 34/34/1 35/35/1 45/45/1 44/44/1
f 35/35/1 36/36/1 46/46/1 45/45/1
f 36/36/1 37/37/1 47/47/1 46/46/1
f 37/37/1 38/38/1 48/48/1 47/47/1
f 38/38/1 39/39/1 49/49/1 48/48/1
f 39/39/1 40/40/1 50/50/1 49/49/1
f 42/42/1 41/41/1 51/51/1 52/52/1
f 41/41/1 43/43/1 53/53/1 51/51/1
f 43/43/1 44/44/1 54/54/1 53/53/1
f 44/44/1 45/45/1 55/55/1 54/54/1
f 45/45/1 46/46/1 56/56/1 55/55/1
f 46/46/1 47/47/1 57/57/1 56/56/1
f 47/47/1 48/48/1 58/58/1 57/57/1
f 48/48/1 49/49/1 59/59/1 58/58/1
f 49/49/1 50/50/1 60/60/1 59/59/1
f 52/52/1 51/51/1 61/61/1 62/62/1
f 51/51/1 53/53/1 63/63/1 61/61/1
f 53/53/1 54/54/1 64/64/1 63/63/1
f 54/54/1 55/55/1 65/65/1 64/64/1
f 55/55/1 56/56/1 66/66/1 65/65/1
f 56/56/1 57/57/1 67/67/1 66/66/1
f 57/57/1 58/58/1 68/68/1 67/67/1
f 58/58/1 59/59/1 69/69/1 68/68/1
f 59/59/1 60/60/1 70/70/1 69/69/1
f 62/62/1 61/61/1 71/71/1 72/72/1
f 61/61/1 63/63/1 73/73/1 71/71/1
f 63/63/1 64/64/1 74/74/1 73/73/1
f 64/64/1 65/65/1 75/75/1 74/74/1
f 65/65/1 66/66/1 76/76/1 75/75/1
f 66/66/1 67/67/1 77/77/1 76/76/1
f 67/67/1 68/68/1 78/78/1 77/77/1
f 68/68/1 69/69/1 79/79/1 78/78/1
f 69/69/1 70/70/1 80/80/1 79/79/1
f 72/72/1 71/71/1 81/81/1 82/82/1
f 71/71/1 73/73/1 83/83/1 81/81/1
f 73/73/1 74/74/1 84/84/1 83/83/1
f 74/74/1 75/75/1 85/85/1 84/84/1
f 75/75/1 76/76/1 86/86/1 85/85/1
f 76/76/1 77/77/1 87/87/1 86/86/1
f 77/77/1 78/78/1 88/88/1 87/87/1
f 78/78/1 79/79/1 89/89/1 88/88/1
f 79/79/1 80/80/1 90/90/1 89/89/1
f 82/82/1 81/81/1 91/91/1 92/92/1
f 81/81/1 83/83/1 93/93/1 91/91/1
f 83/83/1 84/84/1 94/94/1 93/93/1
f 84/84/1 85/85/1 95/95/1 94/94/1
f 85/85/1 86/86/1 96/96/1 95/95/1
f 86/86/1 87/87/1 97/97/1 96/96/1
f 87/87/1 88/88/1 98/98/1 97/97/1
f 88/88/1 89/89/1 99/99/1 98/98/1
f 89/89/1 90/90/1 100/100/1 99/99/1
